<?xml version="1.0" encoding="UTF-8" standalone="no"?>
<!DOCTYPE svg PUBLIC "-//W3C//DTD SVG 1.1//EN"
 "http://www.w3.org/Graphics/SVG/1.1/DTD/svg11.dtd">
<!-- Generated by graphviz version 2.40.1 (20161225.0304)
 -->
<!-- Title: %3 Pages: 1 -->
<svg width="359pt" height="454pt"
 viewBox="0.00 0.00 359.39 454.13" xmlns="http://www.w3.org/2000/svg" xmlns:xlink="http://www.w3.org/1999/xlink">
<g id="graph0" class="graph" transform="scale(1 1) rotate(0) translate(4 450.132)">
<title>%3</title>
<polygon fill="#ffffff" stroke="transparent" points="-4,4 -4,-450.132 355.3905,-450.132 355.3905,4 -4,4"/>
<!-- 0 -->
<g id="node1" class="node">
<title>0</title>
<polygon fill="#d3d3d3" stroke="#000000" points="131.3844,-380.6259 108.3844,-380.6259 108.3844,-362.6259 131.3844,-362.6259 131.3844,-380.6259"/>
<text text-anchor="middle" x="119.8844" y="-369.4259" font-family="Times,serif" font-size="9.00" fill="#000000">0</text>
</g>
<!-- 4 -->
<g id="node5" class="node">
<title>4</title>
<ellipse fill="#add8e6" stroke="#add8e6" cx="113.8844" cy="-153.3173" rx="16.0303" ry="16.0303"/>
<text text-anchor="middle" x="113.8844" y="-151.1173" font-family="Times,serif" font-size="9.00" fill="#000000">4</text>
</g>
<!-- 0&#45;&gt;4 -->
<g id="edge2" class="edge">
<title>0&#45;&gt;4</title>
<path fill="none" stroke="#00ff00" stroke-width=".5327" stroke-dasharray="1,5" d="M114.374,-362.436C108.2128,-351.5773 98.6107,-332.7523 94.8844,-315.1198 84.8488,-267.6334 96.8045,-211.1068 105.7784,-178.9965"/>
<polygon fill="#00ff00" stroke="#00ff00" stroke-width=".5327" points="109.2274,-179.6716 108.6713,-169.0913 102.5081,-177.7091 109.2274,-179.6716"/>
</g>
<!-- 6 -->
<g id="node6" class="node">
<title>6</title>
<ellipse fill="none" stroke="#000000" cx="217.8844" cy="-226.0868" rx="16.0303" ry="16.0303"/>
<text text-anchor="middle" x="217.8844" y="-223.8868" font-family="Times,serif" font-size="9.00" fill="#000000">6</text>
</g>
<!-- 0&#45;&gt;6 -->
<g id="edge22" class="edge">
<title>0&#45;&gt;6</title>
<path fill="none" stroke="#ff0000" stroke-width=".2317" d="M126.0147,-362.5218C141.2591,-339.8825 181.222,-280.5338 203.08,-248.0726"/>
<polygon fill="#ff0000" stroke="#ff0000" stroke-width=".2317" points="206.0472,-249.9325 208.7294,-239.6828 200.2408,-246.0227 206.0472,-249.9325"/>
</g>
<!-- 5 -->
<g id="node8" class="node">
<title>5</title>
<ellipse fill="none" stroke="#000000" cx="119.8844" cy="-298.8564" rx="16.0303" ry="16.0303"/>
<text text-anchor="middle" x="119.8844" y="-296.6564" font-family="Times,serif" font-size="9.00" fill="#000000">5</text>
</g>
<!-- 0&#45;&gt;5 -->
<g id="edge8" class="edge">
<title>0&#45;&gt;5</title>
<path fill="none" stroke="#00ff00" stroke-width=".1907" stroke-dasharray="1,5" d="M119.8844,-362.4096C119.8844,-353.1472 119.8844,-338.4274 119.8844,-325.4856"/>
<polygon fill="#00ff00" stroke="#00ff00" stroke-width=".1907" points="123.3845,-325.1915 119.8844,-315.1915 116.3845,-325.1916 123.3845,-325.1915"/>
</g>
<!-- 1 -->
<g id="node2" class="node">
<title>1</title>
<polygon fill="#d3d3d3" stroke="#000000" points="215.3844,-307.8564 192.3844,-307.8564 192.3844,-289.8564 215.3844,-289.8564 215.3844,-307.8564"/>
<text text-anchor="middle" x="203.8844" y="-296.6564" font-family="Times,serif" font-size="9.00" fill="#000000">1</text>
</g>
<!-- 1&#45;&gt;6 -->
<g id="edge12" class="edge">
<title>1&#45;&gt;6</title>
<path fill="none" stroke="#ff0000" stroke-width=".3615" d="M205.6575,-289.6401C207.4689,-280.2247 210.3652,-265.1702 212.8843,-252.0763"/>
<polygon fill="#ff0000" stroke="#ff0000" stroke-width=".3615" points="216.3434,-252.6221 214.7958,-242.1409 209.4695,-251.2995 216.3434,-252.6221"/>
</g>
<!-- 2 -->
<g id="node3" class="node">
<title>2</title>
<polygon fill="#d3d3d3" stroke="#000000" points="212.3844,-446.132 189.3844,-446.132 189.3844,-428.132 212.3844,-428.132 212.3844,-446.132"/>
<text text-anchor="middle" x="200.8844" y="-434.932" font-family="Times,serif" font-size="9.00" fill="#000000">2</text>
</g>
<!-- 2&#45;&gt;4 -->
<g id="edge6" class="edge">
<title>2&#45;&gt;4</title>
<path fill="none" stroke="#00ff00" stroke-width="1.1538" d="M189.2095,-436.0958C152.3206,-432.5575 39.4312,-419.6191 17.8844,-392.132 -37.5244,-321.4476 53.2471,-214.5465 94.8158,-171.8681"/>
<polygon fill="#00ff00" stroke="#00ff00" stroke-width="1.1538" points="97.3995,-174.2334 101.9587,-164.6697 92.4306,-169.3028 97.3995,-174.2334"/>
</g>
<!-- 2&#45;&gt;6 -->
<g id="edge4" class="edge">
<title>2&#45;&gt;6</title>
<path fill="none" stroke="#00ff00" stroke-width=".2122" stroke-dasharray="1,5" d="M209.0015,-427.8571C216.0535,-419.232 225.8967,-405.7044 230.8844,-392.132 247.7338,-346.2819 248.9006,-330.6017 239.8844,-282.5929 237.8365,-271.6887 233.7462,-260.1858 229.6421,-250.4253"/>
<polygon fill="#00ff00" stroke="#00ff00" stroke-width=".2122" points="232.7052,-248.6993 225.4454,-240.9827 226.3085,-251.5423 232.7052,-248.6993"/>
</g>
<!-- 10 -->
<g id="node9" class="node">
<title>10</title>
<ellipse fill="none" stroke="#000000" cx="200.8844" cy="-371.6259" rx="20.5122" ry="20.5122"/>
<text text-anchor="middle" x="200.8844" y="-369.4259" font-family="Times,serif" font-size="9.00" fill="#000000">10</text>
</g>
<!-- 2&#45;&gt;10 -->
<g id="edge10" class="edge">
<title>2&#45;&gt;10</title>
<path fill="none" stroke="#ff0000" stroke-width=".9246" stroke-dasharray="1,5" d="M200.8844,-428.0237C200.8844,-421.3316 200.8844,-411.8198 200.8844,-402.5099"/>
<polygon fill="#ff0000" stroke="#ff0000" stroke-width=".9246" points="204.3845,-402.2457 200.8844,-392.2457 197.3845,-402.2458 204.3845,-402.2457"/>
</g>
<!-- 3 -->
<g id="node4" class="node">
<title>3</title>
<polygon fill="#d3d3d3" stroke="#000000" points="49.3844,-380.6259 26.3844,-380.6259 26.3844,-362.6259 49.3844,-362.6259 49.3844,-380.6259"/>
<text text-anchor="middle" x="37.8844" y="-369.4259" font-family="Times,serif" font-size="9.00" fill="#000000">3</text>
</g>
<!-- 3&#45;&gt;4 -->
<g id="edge1" class="edge">
<title>3&#45;&gt;4</title>
<path fill="none" stroke="#00ff00" stroke-width="1.041" d="M40.0669,-362.443C46.2306,-337.0295 64.8284,-263.802 87.8844,-205.5807 91.7206,-195.8934 96.6691,-185.5574 101.2177,-176.6564"/>
<polygon fill="#00ff00" stroke="#00ff00" stroke-width="1.041" points="104.3901,-178.1427 105.9248,-167.6596 98.1877,-174.8975 104.3901,-178.1427"/>
</g>
<!-- 9 -->
<g id="node7" class="node">
<title>9</title>
<ellipse fill="none" stroke="#000000" cx="150.8844" cy="-84.7904" rx="16.0303" ry="16.0303"/>
<text text-anchor="middle" x="150.8844" y="-82.5904" font-family="Times,serif" font-size="9.00" fill="#000000">9</text>
</g>
<!-- 3&#45;&gt;9 -->
<g id="edge20" class="edge">
<title>3&#45;&gt;9</title>
<path fill="none" stroke="#00ff00" stroke-width=".1881" d="M37.6744,-362.2521C37.3602,-328.7908 40.0488,-213.171 88.8844,-137.0538 98.8289,-121.5539 114.799,-108.2481 128.0402,-98.9413"/>
<polygon fill="#00ff00" stroke="#00ff00" stroke-width=".1881" points="130.307,-101.6353 136.6635,-93.1591 126.4086,-95.8213 130.307,-101.6353"/>
</g>
<!-- 3&#45;&gt;5 -->
<g id="edge13" class="edge">
<title>3&#45;&gt;5</title>
<path fill="none" stroke="#ff0000" stroke-width=".3354" stroke-dasharray="1,5" d="M48.2697,-362.4096C61.1877,-350.9458 83.526,-331.122 99.8268,-316.6562"/>
<polygon fill="#ff0000" stroke="#ff0000" stroke-width=".3354" points="102.5624,-318.908 107.7188,-309.6525 97.9161,-313.6723 102.5624,-318.908"/>
</g>
<!-- 4&#45;&gt;9 -->
<g id="edge7" class="edge">
<title>4&#45;&gt;9</title>
<path fill="none" stroke="#00ff00" stroke-width=".2557" stroke-dasharray="1,5" d="M121.7311,-138.7845C126.5385,-129.8808 132.8018,-118.2807 138.2903,-108.1156"/>
<polygon fill="#00ff00" stroke="#00ff00" stroke-width=".2557" points="141.3776,-109.7644 143.0489,-99.3022 135.2181,-106.4386 141.3776,-109.7644"/>
</g>
<!-- 6&#45;&gt;4 -->
<g id="edge3" class="edge">
<title>6&#45;&gt;4</title>
<path fill="none" stroke="#ff0000" stroke-width=".6748" d="M205.3664,-215.3977C201.4375,-212.158 197.04,-208.6472 192.8844,-205.5807 174.4117,-191.9497 152.5936,-177.6435 136.5719,-167.452"/>
<polygon fill="#ff0000" stroke="#ff0000" stroke-width=".6748" points="138.2019,-164.3419 127.8776,-161.963 134.465,-170.261 138.2019,-164.3419"/>
</g>
<!-- 6&#45;&gt;9 -->
<g id="edge5" class="edge">
<title>6&#45;&gt;9</title>
<path fill="none" stroke="#ff0000" stroke-width=".3772" d="M210.8408,-211.2327C199.31,-186.9153 176.2978,-138.3848 162.3776,-109.0286"/>
<polygon fill="#ff0000" stroke="#ff0000" stroke-width=".3772" points="165.4822,-107.4068 158.0352,-99.8708 159.1573,-110.406 165.4822,-107.4068"/>
</g>
<!-- 8 -->
<g id="node12" class="node">
<title>8</title>
<ellipse fill="none" stroke="#000000" cx="221.8844" cy="-16.2635" rx="16.0303" ry="16.0303"/>
<text text-anchor="middle" x="221.8844" y="-14.0635" font-family="Times,serif" font-size="9.00" fill="#000000">8</text>
</g>
<!-- 9&#45;&gt;8 -->
<g id="edge19" class="edge">
<title>9&#45;&gt;8</title>
<path fill="none" stroke="#ff0000" stroke-width=".2294" stroke-dasharray="1,5" d="M162.6086,-73.4745C173.4375,-63.0229 189.7289,-47.2989 202.4937,-34.9787"/>
<polygon fill="#ff0000" stroke="#ff0000" stroke-width=".2294" points="205.1408,-37.2882 209.9054,-27.8251 200.2795,-32.2515 205.1408,-37.2882"/>
</g>
<!-- 5&#45;&gt;4 -->
<g id="edge9" class="edge">
<title>5&#45;&gt;4</title>
<path fill="none" stroke="#00ff00" stroke-width=".1804" stroke-dasharray="1,5" d="M119.2077,-282.4441C118.1814,-257.5494 116.2204,-209.9811 114.9864,-180.0482"/>
<polygon fill="#00ff00" stroke="#00ff00" stroke-width=".1804" points="118.4767,-179.7402 114.5677,-169.8929 111.4827,-180.0286 118.4767,-179.7402"/>
</g>
<!-- 5&#45;&gt;6 -->
<g id="edge18" class="edge">
<title>5&#45;&gt;6</title>
<path fill="none" stroke="#00ff00" stroke-width=".3464" d="M133.5323,-289.4849C148.345,-279.2216 172.599,-262.1473 192.8844,-246.5929 194.2932,-245.5127 195.7354,-244.3864 197.1814,-243.2419"/>
<polygon fill="#00ff00" stroke="#00ff00" stroke-width=".3464" points="199.7194,-245.6908 205.2959,-236.6823 195.3187,-240.2471 199.7194,-245.6908"/>
</g>
<!-- 11 -->
<g id="node10" class="node">
<title>11</title>
<ellipse fill="none" stroke="#000000" cx="162.8844" cy="-226.0868" rx="20.5122" ry="20.5122"/>
<text text-anchor="middle" x="162.8844" y="-223.8868" font-family="Times,serif" font-size="9.00" fill="#000000">11</text>
</g>
<!-- 5&#45;&gt;11 -->
<g id="edge14" class="edge">
<title>5&#45;&gt;11</title>
<path fill="none" stroke="#00ff00" stroke-width=".6093" d="M128.1752,-284.8257C133.5519,-275.7266 140.7281,-263.5823 147.1595,-252.6982"/>
<polygon fill="#00ff00" stroke="#00ff00" stroke-width=".6093" points="150.2569,-254.3364 152.331,-243.9465 144.2304,-250.7752 150.2569,-254.3364"/>
</g>
<!-- 10&#45;&gt;6 -->
<g id="edge11" class="edge">
<title>10&#45;&gt;6</title>
<path fill="none" stroke="#ff0000" stroke-width=".5985" stroke-dasharray="1,5" d="M210.8433,-353.3992C216.163,-342.6148 222.163,-328.4883 224.8844,-315.1198 229.1561,-294.1354 226.7809,-269.8781 223.6876,-251.9877"/>
<polygon fill="#ff0000" stroke="#ff0000" stroke-width=".5985" points="227.0952,-251.1727 221.7752,-242.0104 220.2204,-252.4905 227.0952,-251.1727"/>
</g>
<!-- 10&#45;&gt;5 -->
<g id="edge21" class="edge">
<title>10&#45;&gt;5</title>
<path fill="none" stroke="#ff0000" stroke-width=".1942" stroke-dasharray="1,5" d="M185.2667,-357.5952C172.3544,-345.9949 153.9326,-329.4449 139.932,-316.867"/>
<polygon fill="#ff0000" stroke="#ff0000" stroke-width=".1942" points="142.0527,-314.0672 132.2747,-309.9877 137.3745,-319.2744 142.0527,-314.0672"/>
</g>
<!-- 11&#45;&gt;4 -->
<g id="edge15" class="edge">
<title>11&#45;&gt;4</title>
<path fill="none" stroke="#ff0000" stroke-width=".5439" d="M151.272,-208.8415C144.5506,-198.8595 136.0201,-186.1909 128.8051,-175.4759"/>
<polygon fill="#ff0000" stroke="#ff0000" stroke-width=".5439" points="131.6111,-173.3767 123.1225,-167.0367 125.8047,-177.2864 131.6111,-173.3767"/>
</g>
<!-- 12 -->
<g id="node11" class="node">
<title>12</title>
<ellipse fill="none" stroke="#000000" cx="330.8844" cy="-371.6259" rx="20.5122" ry="20.5122"/>
<text text-anchor="middle" x="330.8844" y="-369.4259" font-family="Times,serif" font-size="9.00" fill="#000000">12</text>
</g>
<!-- 12&#45;&gt;5 -->
<g id="edge17" class="edge">
<title>12&#45;&gt;5</title>
<path fill="none" stroke="#ff0000" stroke-width=".5089" stroke-dasharray="1,5" d="M311.4122,-364.9104C273.0524,-351.6809 187.7421,-322.2591 145.127,-307.562"/>
<polygon fill="#ff0000" stroke="#ff0000" stroke-width=".5089" points="146.1016,-304.1959 135.5068,-304.2443 143.8193,-310.8134 146.1016,-304.1959"/>
</g>
<!-- 12&#45;&gt;8 -->
<g id="edge16" class="edge">
<title>12&#45;&gt;8</title>
<path fill="none" stroke="#00ff00" stroke-width=".162" d="M329.7247,-350.9066C328.2476,-322.6871 325.8844,-270.5834 325.8844,-226.0868 325.8844,-226.0868 325.8844,-226.0868 325.8844,-153.3173 325.8844,-99.7618 274.867,-53.9942 244.2968,-31.3771"/>
<polygon fill="#00ff00" stroke="#00ff00" stroke-width=".162" points="246.0782,-28.3479 235.9103,-25.3708 242.0024,-34.0389 246.0782,-28.3479"/>
</g>
</g>
</svg>
