<?xml version="1.0" encoding="utf-8" standalone="no"?>
<!DOCTYPE svg PUBLIC "-//W3C//DTD SVG 1.1//EN"
  "http://www.w3.org/Graphics/SVG/1.1/DTD/svg11.dtd">
<!-- Created with matplotlib (https://matplotlib.org/) -->
<svg height="345.6pt" version="1.1" viewBox="0 0 460.8 345.6" width="460.8pt" xmlns="http://www.w3.org/2000/svg" xmlns:xlink="http://www.w3.org/1999/xlink">
 <defs>
  <style type="text/css">
*{stroke-linecap:butt;stroke-linejoin:round;}
  </style>
 </defs>
 <g id="figure_1">
  <g id="patch_1">
   <path d="M 0 345.6 
L 460.8 345.6 
L 460.8 0 
L 0 0 
z
" style="fill:#ffffff;"/>
  </g>
  <g id="axes_1">
   <g id="patch_2">
    <path d="M 57.6 307.584 
L 414.72 307.584 
L 414.72 41.472 
L 57.6 41.472 
z
" style="fill:#ffffff;"/>
   </g>
   <g id="PolyCollection_1">
    <path clip-path="url(#p361e663fd6)" d="M 73.832727 56.155429 
L 73.832727 307.584 
L 77.214545 307.584 
L 80.596364 307.584 
L 83.978182 307.584 
L 87.36 307.584 
L 90.741818 307.584 
L 94.123636 307.584 
L 97.505455 307.584 
L 100.887273 307.584 
L 104.269091 307.584 
L 107.650909 307.584 
L 111.032727 307.584 
L 114.414545 307.584 
L 117.796364 307.584 
L 121.178182 307.584 
L 124.56 307.584 
L 127.941818 307.584 
L 131.323636 307.584 
L 134.705455 307.584 
L 138.087273 307.584 
L 141.469091 307.584 
L 144.850909 307.584 
L 148.232727 307.584 
L 151.614545 307.584 
L 154.996364 307.584 
L 158.378182 307.584 
L 161.76 307.584 
L 165.141818 307.584 
L 168.523636 307.584 
L 171.905455 307.584 
L 175.287273 307.584 
L 178.669091 307.584 
L 182.050909 307.584 
L 185.432727 307.584 
L 188.814545 307.584 
L 192.196364 307.584 
L 195.578182 307.584 
L 198.96 307.584 
L 202.341818 307.584 
L 205.723636 307.584 
L 209.105455 307.584 
L 212.487273 307.584 
L 215.869091 307.584 
L 219.250909 307.584 
L 222.632727 307.584 
L 226.014545 307.584 
L 229.396364 307.584 
L 232.778182 307.584 
L 236.16 307.584 
L 239.541818 307.584 
L 242.923636 307.584 
L 246.305455 307.584 
L 249.687273 307.584 
L 253.069091 307.584 
L 256.450909 307.584 
L 259.832727 307.584 
L 263.214545 307.584 
L 266.596364 307.584 
L 269.978182 307.584 
L 273.36 307.584 
L 276.741818 307.584 
L 280.123636 307.584 
L 283.505455 307.584 
L 286.887273 307.584 
L 290.269091 307.584 
L 293.650909 307.584 
L 297.032727 307.584 
L 300.414545 307.584 
L 303.796364 307.584 
L 307.178182 307.584 
L 310.56 307.584 
L 313.941818 307.584 
L 317.323636 307.584 
L 320.705455 307.584 
L 324.087273 307.584 
L 327.469091 307.584 
L 330.850909 307.584 
L 334.232727 307.584 
L 337.614545 307.584 
L 340.996364 307.584 
L 344.378182 307.584 
L 347.76 307.584 
L 351.141818 307.584 
L 354.523636 307.584 
L 357.905455 307.584 
L 361.287273 307.584 
L 364.669091 307.584 
L 368.050909 307.584 
L 371.432727 307.584 
L 374.814545 307.584 
L 378.196364 307.584 
L 381.578182 307.584 
L 384.96 307.584 
L 388.341818 307.584 
L 391.723636 307.584 
L 395.105455 307.584 
L 398.487273 307.584 
L 398.487273 287.469714 
L 398.487273 287.469714 
L 395.105455 286.464 
L 391.723636 288.475429 
L 388.341818 287.469714 
L 384.96 285.458286 
L 381.578182 283.446857 
L 378.196364 286.464 
L 374.814545 288.475429 
L 371.432727 285.458286 
L 368.050909 283.446857 
L 364.669091 286.464 
L 361.287273 284.452571 
L 357.905455 283.446857 
L 354.523636 285.458286 
L 351.141818 287.469714 
L 347.76 288.475429 
L 344.378182 290.486857 
L 340.996364 289.481143 
L 337.614545 288.475429 
L 334.232727 291.492571 
L 330.850909 289.481143 
L 327.469091 287.469714 
L 324.087273 289.481143 
L 320.705455 290.486857 
L 317.323636 288.475429 
L 313.941818 287.469714 
L 310.56 286.464 
L 307.178182 285.458286 
L 303.796364 288.475429 
L 300.414545 286.464 
L 297.032727 295.515429 
L 293.650909 290.486857 
L 290.269091 286.464 
L 286.887273 284.452571 
L 283.505455 297.526857 
L 280.123636 302.555429 
L 276.741818 295.515429 
L 273.36 286.464 
L 269.978182 293.504 
L 266.596364 253.275429 
L 263.214545 273.389714 
L 259.832727 284.452571 
L 256.450909 294.509714 
L 253.069091 267.355429 
L 249.687273 280.429714 
L 246.305455 257.298286 
L 242.923636 274.395429 
L 239.541818 287.469714 
L 236.16 267.355429 
L 232.778182 275.401143 
L 229.396364 274.395429 
L 226.014545 279.424 
L 222.632727 297.526857 
L 219.250909 299.538286 
L 215.869091 293.504 
L 212.487273 298.532571 
L 209.105455 304.566857 
L 205.723636 286.464 
L 202.341818 289.481143 
L 198.96 294.509714 
L 195.578182 291.492571 
L 192.196364 278.418286 
L 188.814545 234.166857 
L 185.432727 198.966857 
L 182.050909 202.989714 
L 178.669091 242.212571 
L 175.287273 237.184 
L 171.905455 205.001143 
L 168.523636 208.018286 
L 165.141818 209.024 
L 161.76 224.109714 
L 158.378182 199.972571 
L 154.996364 275.401143 
L 151.614545 249.252571 
L 148.232727 158.738286 
L 144.850909 185.892571 
L 141.469091 262.326857 
L 138.087273 275.401143 
L 134.705455 179.858286 
L 131.323636 166.784 
L 127.941818 154.715429 
L 124.56 174.829714 
L 121.178182 220.086857 
L 117.796364 158.738286 
L 114.414545 137.618286 
L 111.032727 212.041143 
L 107.650909 190.921143 
L 104.269091 281.435429 
L 100.887273 282.441143 
L 97.505455 295.515429 
L 94.123636 304.566857 
L 90.741818 96.384 
L 87.36 123.538286 
L 83.978182 110.464 
L 80.596364 84.315429 
L 77.214545 56.155429 
L 73.832727 56.155429 
z
" style="fill:#1f77b4;"/>
   </g>
   <g id="PolyCollection_2">
    <path clip-path="url(#p361e663fd6)" d="M 73.832727 56.155429 
L 73.832727 56.155429 
L 77.214545 56.155429 
L 80.596364 84.315429 
L 83.978182 110.464 
L 87.36 123.538286 
L 90.741818 96.384 
L 94.123636 304.566857 
L 97.505455 295.515429 
L 100.887273 282.441143 
L 104.269091 281.435429 
L 107.650909 190.921143 
L 111.032727 212.041143 
L 114.414545 137.618286 
L 117.796364 158.738286 
L 121.178182 220.086857 
L 124.56 174.829714 
L 127.941818 154.715429 
L 131.323636 166.784 
L 134.705455 179.858286 
L 138.087273 275.401143 
L 141.469091 262.326857 
L 144.850909 185.892571 
L 148.232727 158.738286 
L 151.614545 249.252571 
L 154.996364 275.401143 
L 158.378182 199.972571 
L 161.76 224.109714 
L 165.141818 209.024 
L 168.523636 208.018286 
L 171.905455 205.001143 
L 175.287273 237.184 
L 178.669091 242.212571 
L 182.050909 202.989714 
L 185.432727 198.966857 
L 188.814545 234.166857 
L 192.196364 278.418286 
L 195.578182 291.492571 
L 198.96 294.509714 
L 202.341818 289.481143 
L 205.723636 286.464 
L 209.105455 304.566857 
L 212.487273 298.532571 
L 215.869091 293.504 
L 219.250909 299.538286 
L 222.632727 297.526857 
L 226.014545 279.424 
L 229.396364 274.395429 
L 232.778182 275.401143 
L 236.16 267.355429 
L 239.541818 287.469714 
L 242.923636 274.395429 
L 246.305455 257.298286 
L 249.687273 280.429714 
L 253.069091 267.355429 
L 256.450909 294.509714 
L 259.832727 284.452571 
L 263.214545 273.389714 
L 266.596364 253.275429 
L 269.978182 293.504 
L 273.36 286.464 
L 276.741818 295.515429 
L 280.123636 302.555429 
L 283.505455 297.526857 
L 286.887273 284.452571 
L 290.269091 286.464 
L 293.650909 290.486857 
L 297.032727 295.515429 
L 300.414545 286.464 
L 303.796364 288.475429 
L 307.178182 285.458286 
L 310.56 286.464 
L 313.941818 287.469714 
L 317.323636 288.475429 
L 320.705455 290.486857 
L 324.087273 289.481143 
L 327.469091 287.469714 
L 330.850909 289.481143 
L 334.232727 291.492571 
L 337.614545 288.475429 
L 340.996364 289.481143 
L 344.378182 290.486857 
L 347.76 288.475429 
L 351.141818 287.469714 
L 354.523636 285.458286 
L 357.905455 283.446857 
L 361.287273 284.452571 
L 364.669091 286.464 
L 368.050909 283.446857 
L 371.432727 285.458286 
L 374.814545 288.475429 
L 378.196364 286.464 
L 381.578182 283.446857 
L 384.96 285.458286 
L 388.341818 287.469714 
L 391.723636 288.475429 
L 395.105455 286.464 
L 398.487273 287.469714 
L 398.487273 263.332571 
L 398.487273 263.332571 
L 395.105455 265.344 
L 391.723636 269.366857 
L 388.341818 270.372571 
L 384.96 266.349714 
L 381.578182 262.326857 
L 378.196364 263.332571 
L 374.814545 263.332571 
L 371.432727 262.326857 
L 368.050909 263.332571 
L 364.669091 268.361143 
L 361.287273 268.361143 
L 357.905455 266.349714 
L 354.523636 266.349714 
L 351.141818 270.372571 
L 347.76 268.361143 
L 344.378182 268.361143 
L 340.996364 266.349714 
L 337.614545 264.338286 
L 334.232727 266.349714 
L 330.850909 261.321143 
L 327.469091 256.292571 
L 324.087273 255.286857 
L 320.705455 252.269714 
L 317.323636 246.235429 
L 313.941818 242.212571 
L 310.56 239.195429 
L 307.178182 235.172571 
L 303.796364 237.184 
L 300.414545 230.144 
L 297.032727 234.166857 
L 293.650909 232.155429 
L 290.269091 233.161143 
L 286.887273 231.149714 
L 283.505455 242.212571 
L 280.123636 245.229714 
L 276.741818 235.172571 
L 273.36 213.046857 
L 269.978182 252.269714 
L 266.596364 222.098286 
L 263.214545 269.366857 
L 259.832727 260.315429 
L 256.450909 278.418286 
L 253.069091 262.326857 
L 249.687273 260.315429 
L 246.305455 218.075429 
L 242.923636 227.126857 
L 239.541818 234.166857 
L 236.16 243.218286 
L 232.778182 224.109714 
L 229.396364 253.275429 
L 226.014545 222.098286 
L 222.632727 255.286857 
L 219.250909 247.241143 
L 215.869091 268.361143 
L 212.487273 267.355429 
L 209.105455 260.315429 
L 205.723636 198.966857 
L 202.341818 254.281143 
L 198.96 202.989714 
L 195.578182 224.109714 
L 192.196364 202.989714 
L 188.814545 173.824 
L 185.432727 146.669714 
L 182.050909 154.715429 
L 178.669091 220.086857 
L 175.287273 186.898286 
L 171.905455 154.715429 
L 168.523636 168.795429 
L 165.141818 175.835429 
L 161.76 176.841143 
L 158.378182 111.469714 
L 154.996364 134.601143 
L 151.614545 196.955429 
L 148.232727 129.572571 
L 144.850909 126.555429 
L 141.469091 119.515429 
L 138.087273 190.921143 
L 134.705455 139.629714 
L 131.323636 150.692571 
L 127.941818 134.601143 
L 124.56 135.606857 
L 121.178182 75.264 
L 117.796364 78.281143 
L 114.414545 67.218286 
L 111.032727 121.526857 
L 107.650909 103.424 
L 104.269091 244.224 
L 100.887273 239.195429 
L 97.505455 274.395429 
L 94.123636 282.441143 
L 90.741818 84.315429 
L 87.36 61.184 
L 83.978182 56.155429 
L 80.596364 56.155429 
L 77.214545 56.155429 
L 73.832727 56.155429 
z
" style="fill:#ff7f0e;"/>
   </g>
   <g id="PolyCollection_3">
    <path clip-path="url(#p361e663fd6)" d="M 73.832727 56.155429 
L 73.832727 56.155429 
L 77.214545 56.155429 
L 80.596364 56.155429 
L 83.978182 56.155429 
L 87.36 61.184 
L 90.741818 84.315429 
L 94.123636 282.441143 
L 97.505455 274.395429 
L 100.887273 239.195429 
L 104.269091 244.224 
L 107.650909 103.424 
L 111.032727 121.526857 
L 114.414545 67.218286 
L 117.796364 78.281143 
L 121.178182 75.264 
L 124.56 135.606857 
L 127.941818 134.601143 
L 131.323636 150.692571 
L 134.705455 139.629714 
L 138.087273 190.921143 
L 141.469091 119.515429 
L 144.850909 126.555429 
L 148.232727 129.572571 
L 151.614545 196.955429 
L 154.996364 134.601143 
L 158.378182 111.469714 
L 161.76 176.841143 
L 165.141818 175.835429 
L 168.523636 168.795429 
L 171.905455 154.715429 
L 175.287273 186.898286 
L 178.669091 220.086857 
L 182.050909 154.715429 
L 185.432727 146.669714 
L 188.814545 173.824 
L 192.196364 202.989714 
L 195.578182 224.109714 
L 198.96 202.989714 
L 202.341818 254.281143 
L 205.723636 198.966857 
L 209.105455 260.315429 
L 212.487273 267.355429 
L 215.869091 268.361143 
L 219.250909 247.241143 
L 222.632727 255.286857 
L 226.014545 222.098286 
L 229.396364 253.275429 
L 232.778182 224.109714 
L 236.16 243.218286 
L 239.541818 234.166857 
L 242.923636 227.126857 
L 246.305455 218.075429 
L 249.687273 260.315429 
L 253.069091 262.326857 
L 256.450909 278.418286 
L 259.832727 260.315429 
L 263.214545 269.366857 
L 266.596364 222.098286 
L 269.978182 252.269714 
L 273.36 213.046857 
L 276.741818 235.172571 
L 280.123636 245.229714 
L 283.505455 242.212571 
L 286.887273 231.149714 
L 290.269091 233.161143 
L 293.650909 232.155429 
L 297.032727 234.166857 
L 300.414545 230.144 
L 303.796364 237.184 
L 307.178182 235.172571 
L 310.56 239.195429 
L 313.941818 242.212571 
L 317.323636 246.235429 
L 320.705455 252.269714 
L 324.087273 255.286857 
L 327.469091 256.292571 
L 330.850909 261.321143 
L 334.232727 266.349714 
L 337.614545 264.338286 
L 340.996364 266.349714 
L 344.378182 268.361143 
L 347.76 268.361143 
L 351.141818 270.372571 
L 354.523636 266.349714 
L 357.905455 266.349714 
L 361.287273 268.361143 
L 364.669091 268.361143 
L 368.050909 263.332571 
L 371.432727 262.326857 
L 374.814545 263.332571 
L 378.196364 263.332571 
L 381.578182 262.326857 
L 384.96 266.349714 
L 388.341818 270.372571 
L 391.723636 269.366857 
L 395.105455 265.344 
L 398.487273 263.332571 
L 398.487273 241.206857 
L 398.487273 241.206857 
L 395.105455 241.206857 
L 391.723636 243.218286 
L 388.341818 247.241143 
L 384.96 240.201143 
L 381.578182 239.195429 
L 378.196364 238.189714 
L 374.814545 240.201143 
L 371.432727 241.206857 
L 368.050909 245.229714 
L 364.669091 248.246857 
L 361.287273 250.258286 
L 357.905455 247.241143 
L 354.523636 245.229714 
L 351.141818 246.235429 
L 347.76 245.229714 
L 344.378182 247.241143 
L 340.996364 248.246857 
L 337.614545 245.229714 
L 334.232727 246.235429 
L 330.850909 243.218286 
L 327.469091 236.178286 
L 324.087273 237.184 
L 320.705455 235.172571 
L 317.323636 230.144 
L 313.941818 228.132571 
L 310.56 227.126857 
L 307.178182 225.115429 
L 303.796364 230.144 
L 300.414545 215.058286 
L 297.032727 219.081143 
L 293.650909 224.109714 
L 290.269091 224.109714 
L 286.887273 226.121143 
L 283.505455 221.092571 
L 280.123636 218.075429 
L 276.741818 206.006857 
L 273.36 199.972571 
L 269.978182 240.201143 
L 266.596364 191.926857 
L 263.214545 222.098286 
L 259.832727 223.104 
L 256.450909 233.161143 
L 253.069091 216.064 
L 249.687273 195.949714 
L 246.305455 167.789714 
L 242.923636 159.744 
L 239.541818 175.835429 
L 236.16 186.898286 
L 232.778182 171.812571 
L 229.396364 164.772571 
L 226.014545 131.584 
L 222.632727 171.812571 
L 219.250909 139.629714 
L 215.869091 162.761143 
L 212.487273 231.149714 
L 209.105455 176.841143 
L 205.723636 147.675429 
L 202.341818 145.664 
L 198.96 82.304 
L 195.578182 117.504 
L 192.196364 105.435429 
L 188.814545 130.578286 
L 185.432727 118.509714 
L 182.050909 110.464 
L 178.669091 158.738286 
L 175.287273 127.561143 
L 171.905455 117.504 
L 168.523636 123.538286 
L 165.141818 108.452571 
L 161.76 96.384 
L 158.378182 75.264 
L 154.996364 127.561143 
L 151.614545 176.841143 
L 148.232727 113.481143 
L 144.850909 102.418286 
L 141.469091 101.412571 
L 138.087273 167.789714 
L 134.705455 118.509714 
L 131.323636 128.566857 
L 127.941818 124.544 
L 124.56 117.504 
L 121.178182 56.155429 
L 117.796364 57.161143 
L 114.414545 56.155429 
L 111.032727 56.155429 
L 107.650909 56.155429 
L 104.269091 55.149714 
L 100.887273 56.155429 
L 97.505455 55.149714 
L 94.123636 55.149714 
L 90.741818 56.155429 
L 87.36 56.155429 
L 83.978182 56.155429 
L 80.596364 56.155429 
L 77.214545 56.155429 
L 73.832727 56.155429 
z
" style="fill:#2ca02c;"/>
   </g>
   <g id="PolyCollection_4">
    <path clip-path="url(#p361e663fd6)" d="M 73.832727 56.155429 
L 73.832727 56.155429 
L 77.214545 56.155429 
L 80.596364 56.155429 
L 83.978182 56.155429 
L 87.36 56.155429 
L 90.741818 56.155429 
L 94.123636 55.149714 
L 97.505455 55.149714 
L 100.887273 56.155429 
L 104.269091 55.149714 
L 107.650909 56.155429 
L 111.032727 56.155429 
L 114.414545 56.155429 
L 117.796364 57.161143 
L 121.178182 56.155429 
L 124.56 117.504 
L 127.941818 124.544 
L 131.323636 128.566857 
L 134.705455 118.509714 
L 138.087273 167.789714 
L 141.469091 101.412571 
L 144.850909 102.418286 
L 148.232727 113.481143 
L 151.614545 176.841143 
L 154.996364 127.561143 
L 158.378182 75.264 
L 161.76 96.384 
L 165.141818 108.452571 
L 168.523636 123.538286 
L 171.905455 117.504 
L 175.287273 127.561143 
L 178.669091 158.738286 
L 182.050909 110.464 
L 185.432727 118.509714 
L 188.814545 130.578286 
L 192.196364 105.435429 
L 195.578182 117.504 
L 198.96 82.304 
L 202.341818 145.664 
L 205.723636 147.675429 
L 209.105455 176.841143 
L 212.487273 231.149714 
L 215.869091 162.761143 
L 219.250909 139.629714 
L 222.632727 171.812571 
L 226.014545 131.584 
L 229.396364 164.772571 
L 232.778182 171.812571 
L 236.16 186.898286 
L 239.541818 175.835429 
L 242.923636 159.744 
L 246.305455 167.789714 
L 249.687273 195.949714 
L 253.069091 216.064 
L 256.450909 233.161143 
L 259.832727 223.104 
L 263.214545 222.098286 
L 266.596364 191.926857 
L 269.978182 240.201143 
L 273.36 199.972571 
L 276.741818 206.006857 
L 280.123636 218.075429 
L 283.505455 221.092571 
L 286.887273 226.121143 
L 290.269091 224.109714 
L 293.650909 224.109714 
L 297.032727 219.081143 
L 300.414545 215.058286 
L 303.796364 230.144 
L 307.178182 225.115429 
L 310.56 227.126857 
L 313.941818 228.132571 
L 317.323636 230.144 
L 320.705455 235.172571 
L 324.087273 237.184 
L 327.469091 236.178286 
L 330.850909 243.218286 
L 334.232727 246.235429 
L 337.614545 245.229714 
L 340.996364 248.246857 
L 344.378182 247.241143 
L 347.76 245.229714 
L 351.141818 246.235429 
L 354.523636 245.229714 
L 357.905455 247.241143 
L 361.287273 250.258286 
L 364.669091 248.246857 
L 368.050909 245.229714 
L 371.432727 241.206857 
L 374.814545 240.201143 
L 378.196364 238.189714 
L 381.578182 239.195429 
L 384.96 240.201143 
L 388.341818 247.241143 
L 391.723636 243.218286 
L 395.105455 241.206857 
L 398.487273 241.206857 
L 398.487273 220.086857 
L 398.487273 220.086857 
L 395.105455 218.075429 
L 391.723636 223.104 
L 388.341818 226.121143 
L 384.96 221.092571 
L 381.578182 218.075429 
L 378.196364 215.058286 
L 374.814545 215.058286 
L 371.432727 218.075429 
L 368.050909 225.115429 
L 364.669091 226.121143 
L 361.287273 226.121143 
L 357.905455 222.098286 
L 354.523636 222.098286 
L 351.141818 225.115429 
L 347.76 221.092571 
L 344.378182 220.086857 
L 340.996364 225.115429 
L 337.614545 221.092571 
L 334.232727 221.092571 
L 330.850909 215.058286 
L 327.469091 211.035429 
L 324.087273 210.029714 
L 320.705455 210.029714 
L 317.323636 207.012571 
L 313.941818 202.989714 
L 310.56 200.978286 
L 307.178182 201.984 
L 303.796364 206.006857 
L 300.414545 192.932571 
L 297.032727 199.972571 
L 293.650909 203.995429 
L 290.269091 203.995429 
L 286.887273 206.006857 
L 283.505455 199.972571 
L 280.123636 195.949714 
L 276.741818 182.875429 
L 273.36 176.841143 
L 269.978182 215.058286 
L 266.596364 166.784 
L 263.214545 197.961143 
L 259.832727 201.984 
L 256.450909 211.035429 
L 253.069091 193.938286 
L 249.687273 176.841143 
L 246.305455 150.692571 
L 242.923636 145.664 
L 239.541818 163.766857 
L 236.16 154.715429 
L 232.778182 135.606857 
L 229.396364 119.515429 
L 226.014545 106.441143 
L 222.632727 163.766857 
L 219.250909 117.504 
L 215.869091 149.686857 
L 212.487273 221.092571 
L 209.105455 170.806857 
L 205.723636 144.658286 
L 202.341818 72.246857 
L 198.96 64.201143 
L 195.578182 72.246857 
L 192.196364 61.184 
L 188.814545 56.155429 
L 185.432727 56.155429 
L 182.050909 55.149714 
L 178.669091 55.149714 
L 175.287273 56.155429 
L 171.905455 57.161143 
L 168.523636 55.149714 
L 165.141818 57.161143 
L 161.76 56.155429 
L 158.378182 56.155429 
L 154.996364 55.149714 
L 151.614545 56.155429 
L 148.232727 56.155429 
L 144.850909 56.155429 
L 141.469091 56.155429 
L 138.087273 56.155429 
L 134.705455 57.161143 
L 131.323636 79.286857 
L 127.941818 61.184 
L 124.56 55.149714 
L 121.178182 56.155429 
L 117.796364 57.161143 
L 114.414545 56.155429 
L 111.032727 56.155429 
L 107.650909 56.155429 
L 104.269091 55.149714 
L 100.887273 56.155429 
L 97.505455 55.149714 
L 94.123636 55.149714 
L 90.741818 56.155429 
L 87.36 56.155429 
L 83.978182 56.155429 
L 80.596364 56.155429 
L 77.214545 56.155429 
L 73.832727 56.155429 
z
" style="fill:#d62728;"/>
   </g>
   <g id="PolyCollection_5">
    <path clip-path="url(#p361e663fd6)" d="M 73.832727 56.155429 
L 73.832727 56.155429 
L 77.214545 56.155429 
L 80.596364 56.155429 
L 83.978182 56.155429 
L 87.36 56.155429 
L 90.741818 56.155429 
L 94.123636 55.149714 
L 97.505455 55.149714 
L 100.887273 56.155429 
L 104.269091 55.149714 
L 107.650909 56.155429 
L 111.032727 56.155429 
L 114.414545 56.155429 
L 117.796364 57.161143 
L 121.178182 56.155429 
L 124.56 55.149714 
L 127.941818 61.184 
L 131.323636 79.286857 
L 134.705455 57.161143 
L 138.087273 56.155429 
L 141.469091 56.155429 
L 144.850909 56.155429 
L 148.232727 56.155429 
L 151.614545 56.155429 
L 154.996364 55.149714 
L 158.378182 56.155429 
L 161.76 56.155429 
L 165.141818 57.161143 
L 168.523636 55.149714 
L 171.905455 57.161143 
L 175.287273 56.155429 
L 178.669091 55.149714 
L 182.050909 55.149714 
L 185.432727 56.155429 
L 188.814545 56.155429 
L 192.196364 61.184 
L 195.578182 72.246857 
L 198.96 64.201143 
L 202.341818 72.246857 
L 205.723636 144.658286 
L 209.105455 170.806857 
L 212.487273 221.092571 
L 215.869091 149.686857 
L 219.250909 117.504 
L 222.632727 163.766857 
L 226.014545 106.441143 
L 229.396364 119.515429 
L 232.778182 135.606857 
L 236.16 154.715429 
L 239.541818 163.766857 
L 242.923636 145.664 
L 246.305455 150.692571 
L 249.687273 176.841143 
L 253.069091 193.938286 
L 256.450909 211.035429 
L 259.832727 201.984 
L 263.214545 197.961143 
L 266.596364 166.784 
L 269.978182 215.058286 
L 273.36 176.841143 
L 276.741818 182.875429 
L 280.123636 195.949714 
L 283.505455 199.972571 
L 286.887273 206.006857 
L 290.269091 203.995429 
L 293.650909 203.995429 
L 297.032727 199.972571 
L 300.414545 192.932571 
L 303.796364 206.006857 
L 307.178182 201.984 
L 310.56 200.978286 
L 313.941818 202.989714 
L 317.323636 207.012571 
L 320.705455 210.029714 
L 324.087273 210.029714 
L 327.469091 211.035429 
L 330.850909 215.058286 
L 334.232727 221.092571 
L 337.614545 221.092571 
L 340.996364 225.115429 
L 344.378182 220.086857 
L 347.76 221.092571 
L 351.141818 225.115429 
L 354.523636 222.098286 
L 357.905455 222.098286 
L 361.287273 226.121143 
L 364.669091 226.121143 
L 368.050909 225.115429 
L 371.432727 218.075429 
L 374.814545 215.058286 
L 378.196364 215.058286 
L 381.578182 218.075429 
L 384.96 221.092571 
L 388.341818 226.121143 
L 391.723636 223.104 
L 395.105455 218.075429 
L 398.487273 220.086857 
L 398.487273 220.086857 
L 398.487273 220.086857 
L 395.105455 218.075429 
L 391.723636 223.104 
L 388.341818 226.121143 
L 384.96 221.092571 
L 381.578182 218.075429 
L 378.196364 215.058286 
L 374.814545 215.058286 
L 371.432727 218.075429 
L 368.050909 225.115429 
L 364.669091 226.121143 
L 361.287273 226.121143 
L 357.905455 222.098286 
L 354.523636 222.098286 
L 351.141818 225.115429 
L 347.76 221.092571 
L 344.378182 220.086857 
L 340.996364 225.115429 
L 337.614545 221.092571 
L 334.232727 221.092571 
L 330.850909 215.058286 
L 327.469091 211.035429 
L 324.087273 210.029714 
L 320.705455 210.029714 
L 317.323636 207.012571 
L 313.941818 202.989714 
L 310.56 200.978286 
L 307.178182 201.984 
L 303.796364 206.006857 
L 300.414545 192.932571 
L 297.032727 199.972571 
L 293.650909 203.995429 
L 290.269091 203.995429 
L 286.887273 206.006857 
L 283.505455 199.972571 
L 280.123636 195.949714 
L 276.741818 182.875429 
L 273.36 176.841143 
L 269.978182 215.058286 
L 266.596364 166.784 
L 263.214545 197.961143 
L 259.832727 201.984 
L 256.450909 211.035429 
L 253.069091 193.938286 
L 249.687273 176.841143 
L 246.305455 150.692571 
L 242.923636 145.664 
L 239.541818 163.766857 
L 236.16 154.715429 
L 232.778182 135.606857 
L 229.396364 119.515429 
L 226.014545 106.441143 
L 222.632727 163.766857 
L 219.250909 117.504 
L 215.869091 149.686857 
L 212.487273 221.092571 
L 209.105455 170.806857 
L 205.723636 144.658286 
L 202.341818 72.246857 
L 198.96 64.201143 
L 195.578182 72.246857 
L 192.196364 61.184 
L 188.814545 56.155429 
L 185.432727 56.155429 
L 182.050909 55.149714 
L 178.669091 55.149714 
L 175.287273 56.155429 
L 171.905455 57.161143 
L 168.523636 55.149714 
L 165.141818 57.161143 
L 161.76 56.155429 
L 158.378182 56.155429 
L 154.996364 55.149714 
L 151.614545 56.155429 
L 148.232727 56.155429 
L 144.850909 56.155429 
L 141.469091 56.155429 
L 138.087273 56.155429 
L 134.705455 57.161143 
L 131.323636 56.155429 
L 127.941818 56.155429 
L 124.56 55.149714 
L 121.178182 56.155429 
L 117.796364 57.161143 
L 114.414545 56.155429 
L 111.032727 56.155429 
L 107.650909 56.155429 
L 104.269091 55.149714 
L 100.887273 56.155429 
L 97.505455 55.149714 
L 94.123636 55.149714 
L 90.741818 56.155429 
L 87.36 56.155429 
L 83.978182 56.155429 
L 80.596364 56.155429 
L 77.214545 56.155429 
L 73.832727 56.155429 
z
" style="fill:#9467bd;"/>
   </g>
   <g id="PolyCollection_6">
    <path clip-path="url(#p361e663fd6)" d="M 73.832727 56.155429 
L 73.832727 56.155429 
L 77.214545 56.155429 
L 80.596364 56.155429 
L 83.978182 56.155429 
L 87.36 56.155429 
L 90.741818 56.155429 
L 94.123636 55.149714 
L 97.505455 55.149714 
L 100.887273 56.155429 
L 104.269091 55.149714 
L 107.650909 56.155429 
L 111.032727 56.155429 
L 114.414545 56.155429 
L 117.796364 57.161143 
L 121.178182 56.155429 
L 124.56 55.149714 
L 127.941818 56.155429 
L 131.323636 56.155429 
L 134.705455 57.161143 
L 138.087273 56.155429 
L 141.469091 56.155429 
L 144.850909 56.155429 
L 148.232727 56.155429 
L 151.614545 56.155429 
L 154.996364 55.149714 
L 158.378182 56.155429 
L 161.76 56.155429 
L 165.141818 57.161143 
L 168.523636 55.149714 
L 171.905455 57.161143 
L 175.287273 56.155429 
L 178.669091 55.149714 
L 182.050909 55.149714 
L 185.432727 56.155429 
L 188.814545 56.155429 
L 192.196364 61.184 
L 195.578182 72.246857 
L 198.96 64.201143 
L 202.341818 72.246857 
L 205.723636 144.658286 
L 209.105455 170.806857 
L 212.487273 221.092571 
L 215.869091 149.686857 
L 219.250909 117.504 
L 222.632727 163.766857 
L 226.014545 106.441143 
L 229.396364 119.515429 
L 232.778182 135.606857 
L 236.16 154.715429 
L 239.541818 163.766857 
L 242.923636 145.664 
L 246.305455 150.692571 
L 249.687273 176.841143 
L 253.069091 193.938286 
L 256.450909 211.035429 
L 259.832727 201.984 
L 263.214545 197.961143 
L 266.596364 166.784 
L 269.978182 215.058286 
L 273.36 176.841143 
L 276.741818 182.875429 
L 280.123636 195.949714 
L 283.505455 199.972571 
L 286.887273 206.006857 
L 290.269091 203.995429 
L 293.650909 203.995429 
L 297.032727 199.972571 
L 300.414545 192.932571 
L 303.796364 206.006857 
L 307.178182 201.984 
L 310.56 200.978286 
L 313.941818 202.989714 
L 317.323636 207.012571 
L 320.705455 210.029714 
L 324.087273 210.029714 
L 327.469091 211.035429 
L 330.850909 215.058286 
L 334.232727 221.092571 
L 337.614545 221.092571 
L 340.996364 225.115429 
L 344.378182 220.086857 
L 347.76 221.092571 
L 351.141818 225.115429 
L 354.523636 222.098286 
L 357.905455 222.098286 
L 361.287273 226.121143 
L 364.669091 226.121143 
L 368.050909 225.115429 
L 371.432727 218.075429 
L 374.814545 215.058286 
L 378.196364 215.058286 
L 381.578182 218.075429 
L 384.96 221.092571 
L 388.341818 226.121143 
L 391.723636 223.104 
L 395.105455 218.075429 
L 398.487273 220.086857 
L 398.487273 196.955429 
L 398.487273 196.955429 
L 395.105455 197.961143 
L 391.723636 200.978286 
L 388.341818 201.984 
L 384.96 198.966857 
L 381.578182 197.961143 
L 378.196364 196.955429 
L 374.814545 194.944 
L 371.432727 194.944 
L 368.050909 199.972571 
L 364.669091 203.995429 
L 361.287273 201.984 
L 357.905455 196.955429 
L 354.523636 198.966857 
L 351.141818 203.995429 
L 347.76 200.978286 
L 344.378182 197.961143 
L 340.996364 201.984 
L 337.614545 196.955429 
L 334.232727 195.949714 
L 330.850909 191.926857 
L 327.469091 189.915429 
L 324.087273 190.921143 
L 320.705455 187.904 
L 317.323636 187.904 
L 313.941818 185.892571 
L 310.56 182.875429 
L 307.178182 184.886857 
L 303.796364 182.875429 
L 300.414545 180.864 
L 297.032727 181.869714 
L 293.650909 178.852571 
L 290.269091 179.858286 
L 286.887273 180.864 
L 283.505455 177.846857 
L 280.123636 177.846857 
L 276.741818 176.841143 
L 273.36 174.829714 
L 269.978182 170.806857 
L 266.596364 147.675429 
L 263.214545 169.801143 
L 259.832727 167.789714 
L 256.450909 167.789714 
L 253.069091 162.761143 
L 249.687273 146.669714 
L 246.305455 120.521143 
L 242.923636 100.406857 
L 239.541818 98.395429 
L 236.16 104.429714 
L 232.778182 73.252571 
L 229.396364 101.412571 
L 226.014545 85.321143 
L 222.632727 107.446857 
L 219.250909 83.309714 
L 215.869091 120.521143 
L 212.487273 117.504 
L 209.105455 107.446857 
L 205.723636 68.224 
L 202.341818 57.161143 
L 198.96 56.155429 
L 195.578182 56.155429 
L 192.196364 56.155429 
L 188.814545 56.155429 
L 185.432727 56.155429 
L 182.050909 55.149714 
L 178.669091 55.149714 
L 175.287273 56.155429 
L 171.905455 57.161143 
L 168.523636 55.149714 
L 165.141818 57.161143 
L 161.76 56.155429 
L 158.378182 56.155429 
L 154.996364 55.149714 
L 151.614545 56.155429 
L 148.232727 56.155429 
L 144.850909 56.155429 
L 141.469091 56.155429 
L 138.087273 56.155429 
L 134.705455 57.161143 
L 131.323636 56.155429 
L 127.941818 56.155429 
L 124.56 55.149714 
L 121.178182 56.155429 
L 117.796364 57.161143 
L 114.414545 56.155429 
L 111.032727 56.155429 
L 107.650909 56.155429 
L 104.269091 55.149714 
L 100.887273 56.155429 
L 97.505455 55.149714 
L 94.123636 55.149714 
L 90.741818 56.155429 
L 87.36 56.155429 
L 83.978182 56.155429 
L 80.596364 56.155429 
L 77.214545 56.155429 
L 73.832727 56.155429 
z
" style="fill:#8c564b;"/>
   </g>
   <g id="PolyCollection_7">
    <path clip-path="url(#p361e663fd6)" d="M 73.832727 56.155429 
L 73.832727 56.155429 
L 77.214545 56.155429 
L 80.596364 56.155429 
L 83.978182 56.155429 
L 87.36 56.155429 
L 90.741818 56.155429 
L 94.123636 55.149714 
L 97.505455 55.149714 
L 100.887273 56.155429 
L 104.269091 55.149714 
L 107.650909 56.155429 
L 111.032727 56.155429 
L 114.414545 56.155429 
L 117.796364 57.161143 
L 121.178182 56.155429 
L 124.56 55.149714 
L 127.941818 56.155429 
L 131.323636 56.155429 
L 134.705455 57.161143 
L 138.087273 56.155429 
L 141.469091 56.155429 
L 144.850909 56.155429 
L 148.232727 56.155429 
L 151.614545 56.155429 
L 154.996364 55.149714 
L 158.378182 56.155429 
L 161.76 56.155429 
L 165.141818 57.161143 
L 168.523636 55.149714 
L 171.905455 57.161143 
L 175.287273 56.155429 
L 178.669091 55.149714 
L 182.050909 55.149714 
L 185.432727 56.155429 
L 188.814545 56.155429 
L 192.196364 56.155429 
L 195.578182 56.155429 
L 198.96 56.155429 
L 202.341818 57.161143 
L 205.723636 68.224 
L 209.105455 107.446857 
L 212.487273 117.504 
L 215.869091 120.521143 
L 219.250909 83.309714 
L 222.632727 107.446857 
L 226.014545 85.321143 
L 229.396364 101.412571 
L 232.778182 73.252571 
L 236.16 104.429714 
L 239.541818 98.395429 
L 242.923636 100.406857 
L 246.305455 120.521143 
L 249.687273 146.669714 
L 253.069091 162.761143 
L 256.450909 167.789714 
L 259.832727 167.789714 
L 263.214545 169.801143 
L 266.596364 147.675429 
L 269.978182 170.806857 
L 273.36 174.829714 
L 276.741818 176.841143 
L 280.123636 177.846857 
L 283.505455 177.846857 
L 286.887273 180.864 
L 290.269091 179.858286 
L 293.650909 178.852571 
L 297.032727 181.869714 
L 300.414545 180.864 
L 303.796364 182.875429 
L 307.178182 184.886857 
L 310.56 182.875429 
L 313.941818 185.892571 
L 317.323636 187.904 
L 320.705455 187.904 
L 324.087273 190.921143 
L 327.469091 189.915429 
L 330.850909 191.926857 
L 334.232727 195.949714 
L 337.614545 196.955429 
L 340.996364 201.984 
L 344.378182 197.961143 
L 347.76 200.978286 
L 351.141818 203.995429 
L 354.523636 198.966857 
L 357.905455 196.955429 
L 361.287273 201.984 
L 364.669091 203.995429 
L 368.050909 199.972571 
L 371.432727 194.944 
L 374.814545 194.944 
L 378.196364 196.955429 
L 381.578182 197.961143 
L 384.96 198.966857 
L 388.341818 201.984 
L 391.723636 200.978286 
L 395.105455 197.961143 
L 398.487273 196.955429 
L 398.487273 178.852571 
L 398.487273 178.852571 
L 395.105455 178.852571 
L 391.723636 179.858286 
L 388.341818 179.858286 
L 384.96 173.824 
L 381.578182 175.835429 
L 378.196364 176.841143 
L 374.814545 172.818286 
L 371.432727 174.829714 
L 368.050909 178.852571 
L 364.669091 180.864 
L 361.287273 176.841143 
L 357.905455 174.829714 
L 354.523636 173.824 
L 351.141818 180.864 
L 347.76 178.852571 
L 344.378182 177.846857 
L 340.996364 180.864 
L 337.614545 174.829714 
L 334.232727 172.818286 
L 330.850909 170.806857 
L 327.469091 166.784 
L 324.087273 165.778286 
L 320.705455 164.772571 
L 317.323636 162.761143 
L 313.941818 163.766857 
L 310.56 159.744 
L 307.178182 164.772571 
L 303.796364 161.755429 
L 300.414545 161.755429 
L 297.032727 166.784 
L 293.650909 169.801143 
L 290.269091 141.641143 
L 286.887273 148.681143 
L 283.505455 163.766857 
L 280.123636 170.806857 
L 276.741818 146.669714 
L 273.36 121.526857 
L 269.978182 124.544 
L 266.596364 135.606857 
L 263.214545 115.492571 
L 259.832727 126.555429 
L 256.450909 154.715429 
L 253.069091 133.595429 
L 249.687273 109.458286 
L 246.305455 99.401143 
L 242.923636 82.304 
L 239.541818 85.321143 
L 236.16 61.184 
L 232.778182 56.155429 
L 229.396364 57.161143 
L 226.014545 56.155429 
L 222.632727 57.161143 
L 219.250909 56.155429 
L 215.869091 56.155429 
L 212.487273 55.149714 
L 209.105455 56.155429 
L 205.723636 57.161143 
L 202.341818 57.161143 
L 198.96 56.155429 
L 195.578182 56.155429 
L 192.196364 56.155429 
L 188.814545 56.155429 
L 185.432727 56.155429 
L 182.050909 55.149714 
L 178.669091 55.149714 
L 175.287273 56.155429 
L 171.905455 57.161143 
L 168.523636 55.149714 
L 165.141818 57.161143 
L 161.76 56.155429 
L 158.378182 56.155429 
L 154.996364 55.149714 
L 151.614545 56.155429 
L 148.232727 56.155429 
L 144.850909 56.155429 
L 141.469091 56.155429 
L 138.087273 56.155429 
L 134.705455 57.161143 
L 131.323636 56.155429 
L 127.941818 56.155429 
L 124.56 55.149714 
L 121.178182 56.155429 
L 117.796364 57.161143 
L 114.414545 56.155429 
L 111.032727 56.155429 
L 107.650909 56.155429 
L 104.269091 55.149714 
L 100.887273 56.155429 
L 97.505455 55.149714 
L 94.123636 55.149714 
L 90.741818 56.155429 
L 87.36 56.155429 
L 83.978182 56.155429 
L 80.596364 56.155429 
L 77.214545 56.155429 
L 73.832727 56.155429 
z
" style="fill:#e377c2;"/>
   </g>
   <g id="PolyCollection_8">
    <path clip-path="url(#p361e663fd6)" d="M 73.832727 56.155429 
L 73.832727 56.155429 
L 77.214545 56.155429 
L 80.596364 56.155429 
L 83.978182 56.155429 
L 87.36 56.155429 
L 90.741818 56.155429 
L 94.123636 55.149714 
L 97.505455 55.149714 
L 100.887273 56.155429 
L 104.269091 55.149714 
L 107.650909 56.155429 
L 111.032727 56.155429 
L 114.414545 56.155429 
L 117.796364 57.161143 
L 121.178182 56.155429 
L 124.56 55.149714 
L 127.941818 56.155429 
L 131.323636 56.155429 
L 134.705455 57.161143 
L 138.087273 56.155429 
L 141.469091 56.155429 
L 144.850909 56.155429 
L 148.232727 56.155429 
L 151.614545 56.155429 
L 154.996364 55.149714 
L 158.378182 56.155429 
L 161.76 56.155429 
L 165.141818 57.161143 
L 168.523636 55.149714 
L 171.905455 57.161143 
L 175.287273 56.155429 
L 178.669091 55.149714 
L 182.050909 55.149714 
L 185.432727 56.155429 
L 188.814545 56.155429 
L 192.196364 56.155429 
L 195.578182 56.155429 
L 198.96 56.155429 
L 202.341818 57.161143 
L 205.723636 57.161143 
L 209.105455 56.155429 
L 212.487273 55.149714 
L 215.869091 56.155429 
L 219.250909 56.155429 
L 222.632727 57.161143 
L 226.014545 56.155429 
L 229.396364 57.161143 
L 232.778182 56.155429 
L 236.16 61.184 
L 239.541818 85.321143 
L 242.923636 82.304 
L 246.305455 99.401143 
L 249.687273 109.458286 
L 253.069091 133.595429 
L 256.450909 154.715429 
L 259.832727 126.555429 
L 263.214545 115.492571 
L 266.596364 135.606857 
L 269.978182 124.544 
L 273.36 121.526857 
L 276.741818 146.669714 
L 280.123636 170.806857 
L 283.505455 163.766857 
L 286.887273 148.681143 
L 290.269091 141.641143 
L 293.650909 169.801143 
L 297.032727 166.784 
L 300.414545 161.755429 
L 303.796364 161.755429 
L 307.178182 164.772571 
L 310.56 159.744 
L 313.941818 163.766857 
L 317.323636 162.761143 
L 320.705455 164.772571 
L 324.087273 165.778286 
L 327.469091 166.784 
L 330.850909 170.806857 
L 334.232727 172.818286 
L 337.614545 174.829714 
L 340.996364 180.864 
L 344.378182 177.846857 
L 347.76 178.852571 
L 351.141818 180.864 
L 354.523636 173.824 
L 357.905455 174.829714 
L 361.287273 176.841143 
L 364.669091 180.864 
L 368.050909 178.852571 
L 371.432727 174.829714 
L 374.814545 172.818286 
L 378.196364 176.841143 
L 381.578182 175.835429 
L 384.96 173.824 
L 388.341818 179.858286 
L 391.723636 179.858286 
L 395.105455 178.852571 
L 398.487273 178.852571 
L 398.487273 178.852571 
L 398.487273 178.852571 
L 395.105455 178.852571 
L 391.723636 179.858286 
L 388.341818 179.858286 
L 384.96 173.824 
L 381.578182 175.835429 
L 378.196364 176.841143 
L 374.814545 172.818286 
L 371.432727 174.829714 
L 368.050909 178.852571 
L 364.669091 180.864 
L 361.287273 176.841143 
L 357.905455 174.829714 
L 354.523636 173.824 
L 351.141818 180.864 
L 347.76 178.852571 
L 344.378182 177.846857 
L 340.996364 180.864 
L 337.614545 174.829714 
L 334.232727 172.818286 
L 330.850909 170.806857 
L 327.469091 166.784 
L 324.087273 165.778286 
L 320.705455 164.772571 
L 317.323636 162.761143 
L 313.941818 163.766857 
L 310.56 159.744 
L 307.178182 164.772571 
L 303.796364 161.755429 
L 300.414545 161.755429 
L 297.032727 166.784 
L 293.650909 169.801143 
L 290.269091 141.641143 
L 286.887273 148.681143 
L 283.505455 163.766857 
L 280.123636 170.806857 
L 276.741818 146.669714 
L 273.36 121.526857 
L 269.978182 124.544 
L 266.596364 135.606857 
L 263.214545 115.492571 
L 259.832727 112.475429 
L 256.450909 114.486857 
L 253.069091 102.418286 
L 249.687273 92.361143 
L 246.305455 73.252571 
L 242.923636 56.155429 
L 239.541818 56.155429 
L 236.16 57.161143 
L 232.778182 56.155429 
L 229.396364 57.161143 
L 226.014545 56.155429 
L 222.632727 57.161143 
L 219.250909 56.155429 
L 215.869091 56.155429 
L 212.487273 55.149714 
L 209.105455 56.155429 
L 205.723636 57.161143 
L 202.341818 57.161143 
L 198.96 56.155429 
L 195.578182 56.155429 
L 192.196364 56.155429 
L 188.814545 56.155429 
L 185.432727 56.155429 
L 182.050909 55.149714 
L 178.669091 55.149714 
L 175.287273 56.155429 
L 171.905455 57.161143 
L 168.523636 55.149714 
L 165.141818 57.161143 
L 161.76 56.155429 
L 158.378182 56.155429 
L 154.996364 55.149714 
L 151.614545 56.155429 
L 148.232727 56.155429 
L 144.850909 56.155429 
L 141.469091 56.155429 
L 138.087273 56.155429 
L 134.705455 57.161143 
L 131.323636 56.155429 
L 127.941818 56.155429 
L 124.56 55.149714 
L 121.178182 56.155429 
L 117.796364 57.161143 
L 114.414545 56.155429 
L 111.032727 56.155429 
L 107.650909 56.155429 
L 104.269091 55.149714 
L 100.887273 56.155429 
L 97.505455 55.149714 
L 94.123636 55.149714 
L 90.741818 56.155429 
L 87.36 56.155429 
L 83.978182 56.155429 
L 80.596364 56.155429 
L 77.214545 56.155429 
L 73.832727 56.155429 
z
" style="fill:#7f7f7f;"/>
   </g>
   <g id="PolyCollection_9">
    <path clip-path="url(#p361e663fd6)" d="M 73.832727 56.155429 
L 73.832727 56.155429 
L 77.214545 56.155429 
L 80.596364 56.155429 
L 83.978182 56.155429 
L 87.36 56.155429 
L 90.741818 56.155429 
L 94.123636 55.149714 
L 97.505455 55.149714 
L 100.887273 56.155429 
L 104.269091 55.149714 
L 107.650909 56.155429 
L 111.032727 56.155429 
L 114.414545 56.155429 
L 117.796364 57.161143 
L 121.178182 56.155429 
L 124.56 55.149714 
L 127.941818 56.155429 
L 131.323636 56.155429 
L 134.705455 57.161143 
L 138.087273 56.155429 
L 141.469091 56.155429 
L 144.850909 56.155429 
L 148.232727 56.155429 
L 151.614545 56.155429 
L 154.996364 55.149714 
L 158.378182 56.155429 
L 161.76 56.155429 
L 165.141818 57.161143 
L 168.523636 55.149714 
L 171.905455 57.161143 
L 175.287273 56.155429 
L 178.669091 55.149714 
L 182.050909 55.149714 
L 185.432727 56.155429 
L 188.814545 56.155429 
L 192.196364 56.155429 
L 195.578182 56.155429 
L 198.96 56.155429 
L 202.341818 57.161143 
L 205.723636 57.161143 
L 209.105455 56.155429 
L 212.487273 55.149714 
L 215.869091 56.155429 
L 219.250909 56.155429 
L 222.632727 57.161143 
L 226.014545 56.155429 
L 229.396364 57.161143 
L 232.778182 56.155429 
L 236.16 57.161143 
L 239.541818 56.155429 
L 242.923636 56.155429 
L 246.305455 73.252571 
L 249.687273 92.361143 
L 253.069091 102.418286 
L 256.450909 114.486857 
L 259.832727 112.475429 
L 263.214545 115.492571 
L 266.596364 135.606857 
L 269.978182 124.544 
L 273.36 121.526857 
L 276.741818 146.669714 
L 280.123636 170.806857 
L 283.505455 163.766857 
L 286.887273 148.681143 
L 290.269091 141.641143 
L 293.650909 169.801143 
L 297.032727 166.784 
L 300.414545 161.755429 
L 303.796364 161.755429 
L 307.178182 164.772571 
L 310.56 159.744 
L 313.941818 163.766857 
L 317.323636 162.761143 
L 320.705455 164.772571 
L 324.087273 165.778286 
L 327.469091 166.784 
L 330.850909 170.806857 
L 334.232727 172.818286 
L 337.614545 174.829714 
L 340.996364 180.864 
L 344.378182 177.846857 
L 347.76 178.852571 
L 351.141818 180.864 
L 354.523636 173.824 
L 357.905455 174.829714 
L 361.287273 176.841143 
L 364.669091 180.864 
L 368.050909 178.852571 
L 371.432727 174.829714 
L 374.814545 172.818286 
L 378.196364 176.841143 
L 381.578182 175.835429 
L 384.96 173.824 
L 388.341818 179.858286 
L 391.723636 179.858286 
L 395.105455 178.852571 
L 398.487273 178.852571 
L 398.487273 144.658286 
L 398.487273 144.658286 
L 395.105455 141.641143 
L 391.723636 146.669714 
L 388.341818 144.658286 
L 384.96 141.641143 
L 381.578182 140.635429 
L 378.196364 138.624 
L 374.814545 138.624 
L 371.432727 143.652571 
L 368.050909 145.664 
L 364.669091 151.698286 
L 361.287273 145.664 
L 357.905455 141.641143 
L 354.523636 142.646857 
L 351.141818 145.664 
L 347.76 137.618286 
L 344.378182 139.629714 
L 340.996364 147.675429 
L 337.614545 146.669714 
L 334.232727 143.652571 
L 330.850909 144.658286 
L 327.469091 143.652571 
L 324.087273 140.635429 
L 320.705455 141.641143 
L 317.323636 141.641143 
L 313.941818 141.641143 
L 310.56 136.612571 
L 307.178182 139.629714 
L 303.796364 140.635429 
L 300.414545 142.646857 
L 297.032727 146.669714 
L 293.650909 148.681143 
L 290.269091 120.521143 
L 286.887273 127.561143 
L 283.505455 141.641143 
L 280.123636 147.675429 
L 276.741818 123.538286 
L 273.36 98.395429 
L 269.978182 104.429714 
L 266.596364 115.492571 
L 263.214545 98.395429 
L 259.832727 97.389714 
L 256.450909 91.355429 
L 253.069091 56.155429 
L 249.687273 56.155429 
L 246.305455 56.155429 
L 242.923636 56.155429 
L 239.541818 56.155429 
L 236.16 57.161143 
L 232.778182 56.155429 
L 229.396364 57.161143 
L 226.014545 56.155429 
L 222.632727 57.161143 
L 219.250909 56.155429 
L 215.869091 56.155429 
L 212.487273 55.149714 
L 209.105455 56.155429 
L 205.723636 57.161143 
L 202.341818 57.161143 
L 198.96 56.155429 
L 195.578182 56.155429 
L 192.196364 56.155429 
L 188.814545 56.155429 
L 185.432727 56.155429 
L 182.050909 55.149714 
L 178.669091 55.149714 
L 175.287273 56.155429 
L 171.905455 57.161143 
L 168.523636 55.149714 
L 165.141818 57.161143 
L 161.76 56.155429 
L 158.378182 56.155429 
L 154.996364 55.149714 
L 151.614545 56.155429 
L 148.232727 56.155429 
L 144.850909 56.155429 
L 141.469091 56.155429 
L 138.087273 56.155429 
L 134.705455 57.161143 
L 131.323636 56.155429 
L 127.941818 56.155429 
L 124.56 55.149714 
L 121.178182 56.155429 
L 117.796364 57.161143 
L 114.414545 56.155429 
L 111.032727 56.155429 
L 107.650909 56.155429 
L 104.269091 55.149714 
L 100.887273 56.155429 
L 97.505455 55.149714 
L 94.123636 55.149714 
L 90.741818 56.155429 
L 87.36 56.155429 
L 83.978182 56.155429 
L 80.596364 56.155429 
L 77.214545 56.155429 
L 73.832727 56.155429 
z
" style="fill:#bcbd22;"/>
   </g>
   <g id="PolyCollection_10">
    <path clip-path="url(#p361e663fd6)" d="M 73.832727 56.155429 
L 73.832727 56.155429 
L 77.214545 56.155429 
L 80.596364 56.155429 
L 83.978182 56.155429 
L 87.36 56.155429 
L 90.741818 56.155429 
L 94.123636 55.149714 
L 97.505455 55.149714 
L 100.887273 56.155429 
L 104.269091 55.149714 
L 107.650909 56.155429 
L 111.032727 56.155429 
L 114.414545 56.155429 
L 117.796364 57.161143 
L 121.178182 56.155429 
L 124.56 55.149714 
L 127.941818 56.155429 
L 131.323636 56.155429 
L 134.705455 57.161143 
L 138.087273 56.155429 
L 141.469091 56.155429 
L 144.850909 56.155429 
L 148.232727 56.155429 
L 151.614545 56.155429 
L 154.996364 55.149714 
L 158.378182 56.155429 
L 161.76 56.155429 
L 165.141818 57.161143 
L 168.523636 55.149714 
L 171.905455 57.161143 
L 175.287273 56.155429 
L 178.669091 55.149714 
L 182.050909 55.149714 
L 185.432727 56.155429 
L 188.814545 56.155429 
L 192.196364 56.155429 
L 195.578182 56.155429 
L 198.96 56.155429 
L 202.341818 57.161143 
L 205.723636 57.161143 
L 209.105455 56.155429 
L 212.487273 55.149714 
L 215.869091 56.155429 
L 219.250909 56.155429 
L 222.632727 57.161143 
L 226.014545 56.155429 
L 229.396364 57.161143 
L 232.778182 56.155429 
L 236.16 57.161143 
L 239.541818 56.155429 
L 242.923636 56.155429 
L 246.305455 56.155429 
L 249.687273 56.155429 
L 253.069091 56.155429 
L 256.450909 91.355429 
L 259.832727 97.389714 
L 263.214545 98.395429 
L 266.596364 115.492571 
L 269.978182 104.429714 
L 273.36 98.395429 
L 276.741818 123.538286 
L 280.123636 147.675429 
L 283.505455 141.641143 
L 286.887273 127.561143 
L 290.269091 120.521143 
L 293.650909 148.681143 
L 297.032727 146.669714 
L 300.414545 142.646857 
L 303.796364 140.635429 
L 307.178182 139.629714 
L 310.56 136.612571 
L 313.941818 141.641143 
L 317.323636 141.641143 
L 320.705455 141.641143 
L 324.087273 140.635429 
L 327.469091 143.652571 
L 330.850909 144.658286 
L 334.232727 143.652571 
L 337.614545 146.669714 
L 340.996364 147.675429 
L 344.378182 139.629714 
L 347.76 137.618286 
L 351.141818 145.664 
L 354.523636 142.646857 
L 357.905455 141.641143 
L 361.287273 145.664 
L 364.669091 151.698286 
L 368.050909 145.664 
L 371.432727 143.652571 
L 374.814545 138.624 
L 378.196364 138.624 
L 381.578182 140.635429 
L 384.96 141.641143 
L 388.341818 144.658286 
L 391.723636 146.669714 
L 395.105455 141.641143 
L 398.487273 144.658286 
L 398.487273 122.532571 
L 398.487273 122.532571 
L 395.105455 122.532571 
L 391.723636 125.549714 
L 388.341818 122.532571 
L 384.96 121.526857 
L 381.578182 118.509714 
L 378.196364 114.486857 
L 374.814545 112.475429 
L 371.432727 119.515429 
L 368.050909 119.515429 
L 364.669091 123.538286 
L 361.287273 120.521143 
L 357.905455 119.515429 
L 354.523636 122.532571 
L 351.141818 123.538286 
L 347.76 116.498286 
L 344.378182 120.521143 
L 340.996364 127.561143 
L 337.614545 125.549714 
L 334.232727 125.549714 
L 330.850909 124.544 
L 327.469091 125.549714 
L 324.087273 120.521143 
L 320.705455 118.509714 
L 317.323636 120.521143 
L 313.941818 119.515429 
L 310.56 117.504 
L 307.178182 119.515429 
L 303.796364 120.521143 
L 300.414545 120.521143 
L 297.032727 127.561143 
L 293.650909 128.566857 
L 290.269091 100.406857 
L 286.887273 107.446857 
L 283.505455 120.521143 
L 280.123636 125.549714 
L 276.741818 100.406857 
L 273.36 75.264 
L 269.978182 84.315429 
L 266.596364 95.378286 
L 263.214545 81.298286 
L 259.832727 82.304 
L 256.450909 65.206857 
L 253.069091 56.155429 
L 249.687273 56.155429 
L 246.305455 56.155429 
L 242.923636 56.155429 
L 239.541818 56.155429 
L 236.16 57.161143 
L 232.778182 56.155429 
L 229.396364 57.161143 
L 226.014545 56.155429 
L 222.632727 57.161143 
L 219.250909 56.155429 
L 215.869091 56.155429 
L 212.487273 55.149714 
L 209.105455 56.155429 
L 205.723636 57.161143 
L 202.341818 57.161143 
L 198.96 56.155429 
L 195.578182 56.155429 
L 192.196364 56.155429 
L 188.814545 56.155429 
L 185.432727 56.155429 
L 182.050909 55.149714 
L 178.669091 55.149714 
L 175.287273 56.155429 
L 171.905455 57.161143 
L 168.523636 55.149714 
L 165.141818 57.161143 
L 161.76 56.155429 
L 158.378182 56.155429 
L 154.996364 55.149714 
L 151.614545 56.155429 
L 148.232727 56.155429 
L 144.850909 56.155429 
L 141.469091 56.155429 
L 138.087273 56.155429 
L 134.705455 57.161143 
L 131.323636 56.155429 
L 127.941818 56.155429 
L 124.56 55.149714 
L 121.178182 56.155429 
L 117.796364 57.161143 
L 114.414545 56.155429 
L 111.032727 56.155429 
L 107.650909 56.155429 
L 104.269091 55.149714 
L 100.887273 56.155429 
L 97.505455 55.149714 
L 94.123636 55.149714 
L 90.741818 56.155429 
L 87.36 56.155429 
L 83.978182 56.155429 
L 80.596364 56.155429 
L 77.214545 56.155429 
L 73.832727 56.155429 
z
" style="fill:#17becf;"/>
   </g>
   <g id="PolyCollection_11">
    <path clip-path="url(#p361e663fd6)" d="M 73.832727 56.155429 
L 73.832727 56.155429 
L 77.214545 56.155429 
L 80.596364 56.155429 
L 83.978182 56.155429 
L 87.36 56.155429 
L 90.741818 56.155429 
L 94.123636 55.149714 
L 97.505455 55.149714 
L 100.887273 56.155429 
L 104.269091 55.149714 
L 107.650909 56.155429 
L 111.032727 56.155429 
L 114.414545 56.155429 
L 117.796364 57.161143 
L 121.178182 56.155429 
L 124.56 55.149714 
L 127.941818 56.155429 
L 131.323636 56.155429 
L 134.705455 57.161143 
L 138.087273 56.155429 
L 141.469091 56.155429 
L 144.850909 56.155429 
L 148.232727 56.155429 
L 151.614545 56.155429 
L 154.996364 55.149714 
L 158.378182 56.155429 
L 161.76 56.155429 
L 165.141818 57.161143 
L 168.523636 55.149714 
L 171.905455 57.161143 
L 175.287273 56.155429 
L 178.669091 55.149714 
L 182.050909 55.149714 
L 185.432727 56.155429 
L 188.814545 56.155429 
L 192.196364 56.155429 
L 195.578182 56.155429 
L 198.96 56.155429 
L 202.341818 57.161143 
L 205.723636 57.161143 
L 209.105455 56.155429 
L 212.487273 55.149714 
L 215.869091 56.155429 
L 219.250909 56.155429 
L 222.632727 57.161143 
L 226.014545 56.155429 
L 229.396364 57.161143 
L 232.778182 56.155429 
L 236.16 57.161143 
L 239.541818 56.155429 
L 242.923636 56.155429 
L 246.305455 56.155429 
L 249.687273 56.155429 
L 253.069091 56.155429 
L 256.450909 65.206857 
L 259.832727 82.304 
L 263.214545 81.298286 
L 266.596364 95.378286 
L 269.978182 84.315429 
L 273.36 75.264 
L 276.741818 100.406857 
L 280.123636 125.549714 
L 283.505455 120.521143 
L 286.887273 107.446857 
L 290.269091 100.406857 
L 293.650909 128.566857 
L 297.032727 127.561143 
L 300.414545 120.521143 
L 303.796364 120.521143 
L 307.178182 119.515429 
L 310.56 117.504 
L 313.941818 119.515429 
L 317.323636 120.521143 
L 320.705455 118.509714 
L 324.087273 120.521143 
L 327.469091 125.549714 
L 330.850909 124.544 
L 334.232727 125.549714 
L 337.614545 125.549714 
L 340.996364 127.561143 
L 344.378182 120.521143 
L 347.76 116.498286 
L 351.141818 123.538286 
L 354.523636 122.532571 
L 357.905455 119.515429 
L 361.287273 120.521143 
L 364.669091 123.538286 
L 368.050909 119.515429 
L 371.432727 119.515429 
L 374.814545 112.475429 
L 378.196364 114.486857 
L 381.578182 118.509714 
L 384.96 121.526857 
L 388.341818 122.532571 
L 391.723636 125.549714 
L 395.105455 122.532571 
L 398.487273 122.532571 
L 398.487273 99.401143 
L 398.487273 99.401143 
L 395.105455 102.418286 
L 391.723636 103.424 
L 388.341818 103.424 
L 384.96 100.406857 
L 381.578182 99.401143 
L 378.196364 97.389714 
L 374.814545 93.366857 
L 371.432727 98.395429 
L 368.050909 97.389714 
L 364.669091 99.401143 
L 361.287273 94.372571 
L 357.905455 91.355429 
L 354.523636 96.384 
L 351.141818 99.401143 
L 347.76 93.366857 
L 344.378182 99.401143 
L 340.996364 105.435429 
L 337.614545 102.418286 
L 334.232727 101.412571 
L 330.850909 102.418286 
L 327.469091 105.435429 
L 324.087273 98.395429 
L 320.705455 99.401143 
L 317.323636 99.401143 
L 313.941818 101.412571 
L 310.56 98.395429 
L 307.178182 99.401143 
L 303.796364 100.406857 
L 300.414545 98.395429 
L 297.032727 108.452571 
L 293.650909 108.452571 
L 290.269091 80.292571 
L 286.887273 87.332571 
L 283.505455 99.401143 
L 280.123636 107.446857 
L 276.741818 85.321143 
L 273.36 61.184 
L 269.978182 72.246857 
L 266.596364 61.184 
L 263.214545 56.155429 
L 259.832727 55.149714 
L 256.450909 55.149714 
L 253.069091 56.155429 
L 249.687273 56.155429 
L 246.305455 56.155429 
L 242.923636 56.155429 
L 239.541818 56.155429 
L 236.16 57.161143 
L 232.778182 56.155429 
L 229.396364 57.161143 
L 226.014545 56.155429 
L 222.632727 57.161143 
L 219.250909 56.155429 
L 215.869091 56.155429 
L 212.487273 55.149714 
L 209.105455 56.155429 
L 205.723636 57.161143 
L 202.341818 57.161143 
L 198.96 56.155429 
L 195.578182 56.155429 
L 192.196364 56.155429 
L 188.814545 56.155429 
L 185.432727 56.155429 
L 182.050909 55.149714 
L 178.669091 55.149714 
L 175.287273 56.155429 
L 171.905455 57.161143 
L 168.523636 55.149714 
L 165.141818 57.161143 
L 161.76 56.155429 
L 158.378182 56.155429 
L 154.996364 55.149714 
L 151.614545 56.155429 
L 148.232727 56.155429 
L 144.850909 56.155429 
L 141.469091 56.155429 
L 138.087273 56.155429 
L 134.705455 57.161143 
L 131.323636 56.155429 
L 127.941818 56.155429 
L 124.56 55.149714 
L 121.178182 56.155429 
L 117.796364 57.161143 
L 114.414545 56.155429 
L 111.032727 56.155429 
L 107.650909 56.155429 
L 104.269091 55.149714 
L 100.887273 56.155429 
L 97.505455 55.149714 
L 94.123636 55.149714 
L 90.741818 56.155429 
L 87.36 56.155429 
L 83.978182 56.155429 
L 80.596364 56.155429 
L 77.214545 56.155429 
L 73.832727 56.155429 
z
" style="fill:#1f77b4;"/>
   </g>
   <g id="PolyCollection_12">
    <path clip-path="url(#p361e663fd6)" d="M 73.832727 56.155429 
L 73.832727 56.155429 
L 77.214545 56.155429 
L 80.596364 56.155429 
L 83.978182 56.155429 
L 87.36 56.155429 
L 90.741818 56.155429 
L 94.123636 55.149714 
L 97.505455 55.149714 
L 100.887273 56.155429 
L 104.269091 55.149714 
L 107.650909 56.155429 
L 111.032727 56.155429 
L 114.414545 56.155429 
L 117.796364 57.161143 
L 121.178182 56.155429 
L 124.56 55.149714 
L 127.941818 56.155429 
L 131.323636 56.155429 
L 134.705455 57.161143 
L 138.087273 56.155429 
L 141.469091 56.155429 
L 144.850909 56.155429 
L 148.232727 56.155429 
L 151.614545 56.155429 
L 154.996364 55.149714 
L 158.378182 56.155429 
L 161.76 56.155429 
L 165.141818 57.161143 
L 168.523636 55.149714 
L 171.905455 57.161143 
L 175.287273 56.155429 
L 178.669091 55.149714 
L 182.050909 55.149714 
L 185.432727 56.155429 
L 188.814545 56.155429 
L 192.196364 56.155429 
L 195.578182 56.155429 
L 198.96 56.155429 
L 202.341818 57.161143 
L 205.723636 57.161143 
L 209.105455 56.155429 
L 212.487273 55.149714 
L 215.869091 56.155429 
L 219.250909 56.155429 
L 222.632727 57.161143 
L 226.014545 56.155429 
L 229.396364 57.161143 
L 232.778182 56.155429 
L 236.16 57.161143 
L 239.541818 56.155429 
L 242.923636 56.155429 
L 246.305455 56.155429 
L 249.687273 56.155429 
L 253.069091 56.155429 
L 256.450909 55.149714 
L 259.832727 55.149714 
L 263.214545 56.155429 
L 266.596364 61.184 
L 269.978182 72.246857 
L 273.36 61.184 
L 276.741818 85.321143 
L 280.123636 107.446857 
L 283.505455 99.401143 
L 286.887273 87.332571 
L 290.269091 80.292571 
L 293.650909 108.452571 
L 297.032727 108.452571 
L 300.414545 98.395429 
L 303.796364 100.406857 
L 307.178182 99.401143 
L 310.56 98.395429 
L 313.941818 101.412571 
L 317.323636 99.401143 
L 320.705455 99.401143 
L 324.087273 98.395429 
L 327.469091 105.435429 
L 330.850909 102.418286 
L 334.232727 101.412571 
L 337.614545 102.418286 
L 340.996364 105.435429 
L 344.378182 99.401143 
L 347.76 93.366857 
L 351.141818 99.401143 
L 354.523636 96.384 
L 357.905455 91.355429 
L 361.287273 94.372571 
L 364.669091 99.401143 
L 368.050909 97.389714 
L 371.432727 98.395429 
L 374.814545 93.366857 
L 378.196364 97.389714 
L 381.578182 99.401143 
L 384.96 100.406857 
L 388.341818 103.424 
L 391.723636 103.424 
L 395.105455 102.418286 
L 398.487273 99.401143 
L 398.487273 76.269714 
L 398.487273 76.269714 
L 395.105455 82.304 
L 391.723636 81.298286 
L 388.341818 79.286857 
L 384.96 78.281143 
L 381.578182 79.286857 
L 378.196364 79.286857 
L 374.814545 77.275429 
L 371.432727 80.292571 
L 368.050909 78.281143 
L 364.669091 78.281143 
L 361.287273 75.264 
L 357.905455 71.241143 
L 354.523636 73.252571 
L 351.141818 78.281143 
L 347.76 73.252571 
L 344.378182 77.275429 
L 340.996364 82.304 
L 337.614545 78.281143 
L 334.232727 80.292571 
L 330.850909 83.309714 
L 327.469091 78.281143 
L 324.087273 75.264 
L 320.705455 78.281143 
L 317.323636 80.292571 
L 313.941818 84.315429 
L 310.56 89.344 
L 307.178182 85.321143 
L 303.796364 77.275429 
L 300.414545 78.281143 
L 297.032727 86.326857 
L 293.650909 100.406857 
L 290.269091 77.275429 
L 286.887273 78.281143 
L 283.505455 71.241143 
L 280.123636 76.269714 
L 276.741818 55.149714 
L 273.36 54.144 
L 269.978182 54.144 
L 266.596364 57.161143 
L 263.214545 56.155429 
L 259.832727 55.149714 
L 256.450909 55.149714 
L 253.069091 56.155429 
L 249.687273 56.155429 
L 246.305455 56.155429 
L 242.923636 56.155429 
L 239.541818 56.155429 
L 236.16 57.161143 
L 232.778182 56.155429 
L 229.396364 57.161143 
L 226.014545 56.155429 
L 222.632727 57.161143 
L 219.250909 56.155429 
L 215.869091 56.155429 
L 212.487273 55.149714 
L 209.105455 56.155429 
L 205.723636 57.161143 
L 202.341818 57.161143 
L 198.96 56.155429 
L 195.578182 56.155429 
L 192.196364 56.155429 
L 188.814545 56.155429 
L 185.432727 56.155429 
L 182.050909 55.149714 
L 178.669091 55.149714 
L 175.287273 56.155429 
L 171.905455 57.161143 
L 168.523636 55.149714 
L 165.141818 57.161143 
L 161.76 56.155429 
L 158.378182 56.155429 
L 154.996364 55.149714 
L 151.614545 56.155429 
L 148.232727 56.155429 
L 144.850909 56.155429 
L 141.469091 56.155429 
L 138.087273 56.155429 
L 134.705455 57.161143 
L 131.323636 56.155429 
L 127.941818 56.155429 
L 124.56 55.149714 
L 121.178182 56.155429 
L 117.796364 57.161143 
L 114.414545 56.155429 
L 111.032727 56.155429 
L 107.650909 56.155429 
L 104.269091 55.149714 
L 100.887273 56.155429 
L 97.505455 55.149714 
L 94.123636 55.149714 
L 90.741818 56.155429 
L 87.36 56.155429 
L 83.978182 56.155429 
L 80.596364 56.155429 
L 77.214545 56.155429 
L 73.832727 56.155429 
z
" style="fill:#ff7f0e;"/>
   </g>
   <g id="PolyCollection_13">
    <path clip-path="url(#p361e663fd6)" d="M 73.832727 56.155429 
L 73.832727 56.155429 
L 77.214545 56.155429 
L 80.596364 56.155429 
L 83.978182 56.155429 
L 87.36 56.155429 
L 90.741818 56.155429 
L 94.123636 55.149714 
L 97.505455 55.149714 
L 100.887273 56.155429 
L 104.269091 55.149714 
L 107.650909 56.155429 
L 111.032727 56.155429 
L 114.414545 56.155429 
L 117.796364 57.161143 
L 121.178182 56.155429 
L 124.56 55.149714 
L 127.941818 56.155429 
L 131.323636 56.155429 
L 134.705455 57.161143 
L 138.087273 56.155429 
L 141.469091 56.155429 
L 144.850909 56.155429 
L 148.232727 56.155429 
L 151.614545 56.155429 
L 154.996364 55.149714 
L 158.378182 56.155429 
L 161.76 56.155429 
L 165.141818 57.161143 
L 168.523636 55.149714 
L 171.905455 57.161143 
L 175.287273 56.155429 
L 178.669091 55.149714 
L 182.050909 55.149714 
L 185.432727 56.155429 
L 188.814545 56.155429 
L 192.196364 56.155429 
L 195.578182 56.155429 
L 198.96 56.155429 
L 202.341818 57.161143 
L 205.723636 57.161143 
L 209.105455 56.155429 
L 212.487273 55.149714 
L 215.869091 56.155429 
L 219.250909 56.155429 
L 222.632727 57.161143 
L 226.014545 56.155429 
L 229.396364 57.161143 
L 232.778182 56.155429 
L 236.16 57.161143 
L 239.541818 56.155429 
L 242.923636 56.155429 
L 246.305455 56.155429 
L 249.687273 56.155429 
L 253.069091 56.155429 
L 256.450909 55.149714 
L 259.832727 55.149714 
L 263.214545 56.155429 
L 266.596364 57.161143 
L 269.978182 54.144 
L 273.36 54.144 
L 276.741818 55.149714 
L 280.123636 76.269714 
L 283.505455 71.241143 
L 286.887273 78.281143 
L 290.269091 77.275429 
L 293.650909 100.406857 
L 297.032727 86.326857 
L 300.414545 78.281143 
L 303.796364 77.275429 
L 307.178182 85.321143 
L 310.56 89.344 
L 313.941818 84.315429 
L 317.323636 80.292571 
L 320.705455 78.281143 
L 324.087273 75.264 
L 327.469091 78.281143 
L 330.850909 83.309714 
L 334.232727 80.292571 
L 337.614545 78.281143 
L 340.996364 82.304 
L 344.378182 77.275429 
L 347.76 73.252571 
L 351.141818 78.281143 
L 354.523636 73.252571 
L 357.905455 71.241143 
L 361.287273 75.264 
L 364.669091 78.281143 
L 368.050909 78.281143 
L 371.432727 80.292571 
L 374.814545 77.275429 
L 378.196364 79.286857 
L 381.578182 79.286857 
L 384.96 78.281143 
L 388.341818 79.286857 
L 391.723636 81.298286 
L 395.105455 82.304 
L 398.487273 76.269714 
L 398.487273 55.149714 
L 398.487273 55.149714 
L 395.105455 59.172571 
L 391.723636 56.155429 
L 388.341818 57.161143 
L 384.96 58.166857 
L 381.578182 57.161143 
L 378.196364 55.149714 
L 374.814545 55.149714 
L 371.432727 55.149714 
L 368.050909 56.155429 
L 364.669091 58.166857 
L 361.287273 57.161143 
L 357.905455 55.149714 
L 354.523636 55.149714 
L 351.141818 58.166857 
L 347.76 54.144 
L 344.378182 56.155429 
L 340.996364 60.178286 
L 337.614545 55.149714 
L 334.232727 56.155429 
L 330.850909 56.155429 
L 327.469091 59.172571 
L 324.087273 57.161143 
L 320.705455 56.155429 
L 317.323636 56.155429 
L 313.941818 58.166857 
L 310.56 56.155429 
L 307.178182 57.161143 
L 303.796364 56.155429 
L 300.414545 54.144 
L 297.032727 58.166857 
L 293.650909 54.144 
L 290.269091 55.149714 
L 286.887273 58.166857 
L 283.505455 57.161143 
L 280.123636 57.161143 
L 276.741818 55.149714 
L 273.36 54.144 
L 269.978182 54.144 
L 266.596364 57.161143 
L 263.214545 56.155429 
L 259.832727 55.149714 
L 256.450909 55.149714 
L 253.069091 56.155429 
L 249.687273 56.155429 
L 246.305455 56.155429 
L 242.923636 56.155429 
L 239.541818 56.155429 
L 236.16 57.161143 
L 232.778182 56.155429 
L 229.396364 57.161143 
L 226.014545 56.155429 
L 222.632727 57.161143 
L 219.250909 56.155429 
L 215.869091 56.155429 
L 212.487273 55.149714 
L 209.105455 56.155429 
L 205.723636 57.161143 
L 202.341818 57.161143 
L 198.96 56.155429 
L 195.578182 56.155429 
L 192.196364 56.155429 
L 188.814545 56.155429 
L 185.432727 56.155429 
L 182.050909 55.149714 
L 178.669091 55.149714 
L 175.287273 56.155429 
L 171.905455 57.161143 
L 168.523636 55.149714 
L 165.141818 57.161143 
L 161.76 56.155429 
L 158.378182 56.155429 
L 154.996364 55.149714 
L 151.614545 56.155429 
L 148.232727 56.155429 
L 144.850909 56.155429 
L 141.469091 56.155429 
L 138.087273 56.155429 
L 134.705455 57.161143 
L 131.323636 56.155429 
L 127.941818 56.155429 
L 124.56 55.149714 
L 121.178182 56.155429 
L 117.796364 57.161143 
L 114.414545 56.155429 
L 111.032727 56.155429 
L 107.650909 56.155429 
L 104.269091 55.149714 
L 100.887273 56.155429 
L 97.505455 55.149714 
L 94.123636 55.149714 
L 90.741818 56.155429 
L 87.36 56.155429 
L 83.978182 56.155429 
L 80.596364 56.155429 
L 77.214545 56.155429 
L 73.832727 56.155429 
z
" style="fill:#2ca02c;"/>
   </g>
   <g id="matplotlib.axis_1">
    <g id="xtick_1">
     <g id="line2d_1">
      <defs>
       <path d="M 0 0 
L 0 3.5 
" id="m2c9cd58547" style="stroke:#000000;stroke-width:0.8;"/>
      </defs>
      <g>
       <use style="stroke:#000000;stroke-width:0.8;" x="73.832727" xlink:href="#m2c9cd58547" y="307.584"/>
      </g>
     </g>
     <g id="text_1">
      <!-- 0 -->
      <defs>
       <path d="M 31.78125 66.40625 
Q 24.171875 66.40625 20.328125 58.90625 
Q 16.5 51.421875 16.5 36.375 
Q 16.5 21.390625 20.328125 13.890625 
Q 24.171875 6.390625 31.78125 6.390625 
Q 39.453125 6.390625 43.28125 13.890625 
Q 47.125 21.390625 47.125 36.375 
Q 47.125 51.421875 43.28125 58.90625 
Q 39.453125 66.40625 31.78125 66.40625 
z
M 31.78125 74.21875 
Q 44.046875 74.21875 50.515625 64.515625 
Q 56.984375 54.828125 56.984375 36.375 
Q 56.984375 17.96875 50.515625 8.265625 
Q 44.046875 -1.421875 31.78125 -1.421875 
Q 19.53125 -1.421875 13.0625 8.265625 
Q 6.59375 17.96875 6.59375 36.375 
Q 6.59375 54.828125 13.0625 64.515625 
Q 19.53125 74.21875 31.78125 74.21875 
z
" id="DejaVuSans-48"/>
      </defs>
      <g transform="translate(70.651477 322.182437)scale(0.1 -0.1)">
       <use xlink:href="#DejaVuSans-48"/>
      </g>
     </g>
    </g>
    <g id="xtick_2">
     <g id="line2d_2">
      <g>
       <use style="stroke:#000000;stroke-width:0.8;" x="141.469091" xlink:href="#m2c9cd58547" y="307.584"/>
      </g>
     </g>
     <g id="text_2">
      <!-- 20 -->
      <defs>
       <path d="M 19.1875 8.296875 
L 53.609375 8.296875 
L 53.609375 0 
L 7.328125 0 
L 7.328125 8.296875 
Q 12.9375 14.109375 22.625 23.890625 
Q 32.328125 33.6875 34.8125 36.53125 
Q 39.546875 41.84375 41.421875 45.53125 
Q 43.3125 49.21875 43.3125 52.78125 
Q 43.3125 58.59375 39.234375 62.25 
Q 35.15625 65.921875 28.609375 65.921875 
Q 23.96875 65.921875 18.8125 64.3125 
Q 13.671875 62.703125 7.8125 59.421875 
L 7.8125 69.390625 
Q 13.765625 71.78125 18.9375 73 
Q 24.125 74.21875 28.421875 74.21875 
Q 39.75 74.21875 46.484375 68.546875 
Q 53.21875 62.890625 53.21875 53.421875 
Q 53.21875 48.921875 51.53125 44.890625 
Q 49.859375 40.875 45.40625 35.40625 
Q 44.1875 33.984375 37.640625 27.21875 
Q 31.109375 20.453125 19.1875 8.296875 
z
" id="DejaVuSans-50"/>
      </defs>
      <g transform="translate(135.106591 322.182437)scale(0.1 -0.1)">
       <use xlink:href="#DejaVuSans-50"/>
       <use x="63.623047" xlink:href="#DejaVuSans-48"/>
      </g>
     </g>
    </g>
    <g id="xtick_3">
     <g id="line2d_3">
      <g>
       <use style="stroke:#000000;stroke-width:0.8;" x="209.105455" xlink:href="#m2c9cd58547" y="307.584"/>
      </g>
     </g>
     <g id="text_3">
      <!-- 40 -->
      <defs>
       <path d="M 37.796875 64.3125 
L 12.890625 25.390625 
L 37.796875 25.390625 
z
M 35.203125 72.90625 
L 47.609375 72.90625 
L 47.609375 25.390625 
L 58.015625 25.390625 
L 58.015625 17.1875 
L 47.609375 17.1875 
L 47.609375 0 
L 37.796875 0 
L 37.796875 17.1875 
L 4.890625 17.1875 
L 4.890625 26.703125 
z
" id="DejaVuSans-52"/>
      </defs>
      <g transform="translate(202.742955 322.182437)scale(0.1 -0.1)">
       <use xlink:href="#DejaVuSans-52"/>
       <use x="63.623047" xlink:href="#DejaVuSans-48"/>
      </g>
     </g>
    </g>
    <g id="xtick_4">
     <g id="line2d_4">
      <g>
       <use style="stroke:#000000;stroke-width:0.8;" x="276.741818" xlink:href="#m2c9cd58547" y="307.584"/>
      </g>
     </g>
     <g id="text_4">
      <!-- 60 -->
      <defs>
       <path d="M 33.015625 40.375 
Q 26.375 40.375 22.484375 35.828125 
Q 18.609375 31.296875 18.609375 23.390625 
Q 18.609375 15.53125 22.484375 10.953125 
Q 26.375 6.390625 33.015625 6.390625 
Q 39.65625 6.390625 43.53125 10.953125 
Q 47.40625 15.53125 47.40625 23.390625 
Q 47.40625 31.296875 43.53125 35.828125 
Q 39.65625 40.375 33.015625 40.375 
z
M 52.59375 71.296875 
L 52.59375 62.3125 
Q 48.875 64.0625 45.09375 64.984375 
Q 41.3125 65.921875 37.59375 65.921875 
Q 27.828125 65.921875 22.671875 59.328125 
Q 17.53125 52.734375 16.796875 39.40625 
Q 19.671875 43.65625 24.015625 45.921875 
Q 28.375 48.1875 33.59375 48.1875 
Q 44.578125 48.1875 50.953125 41.515625 
Q 57.328125 34.859375 57.328125 23.390625 
Q 57.328125 12.15625 50.6875 5.359375 
Q 44.046875 -1.421875 33.015625 -1.421875 
Q 20.359375 -1.421875 13.671875 8.265625 
Q 6.984375 17.96875 6.984375 36.375 
Q 6.984375 53.65625 15.1875 63.9375 
Q 23.390625 74.21875 37.203125 74.21875 
Q 40.921875 74.21875 44.703125 73.484375 
Q 48.484375 72.75 52.59375 71.296875 
z
" id="DejaVuSans-54"/>
      </defs>
      <g transform="translate(270.379318 322.182437)scale(0.1 -0.1)">
       <use xlink:href="#DejaVuSans-54"/>
       <use x="63.623047" xlink:href="#DejaVuSans-48"/>
      </g>
     </g>
    </g>
    <g id="xtick_5">
     <g id="line2d_5">
      <g>
       <use style="stroke:#000000;stroke-width:0.8;" x="344.378182" xlink:href="#m2c9cd58547" y="307.584"/>
      </g>
     </g>
     <g id="text_5">
      <!-- 80 -->
      <defs>
       <path d="M 31.78125 34.625 
Q 24.75 34.625 20.71875 30.859375 
Q 16.703125 27.09375 16.703125 20.515625 
Q 16.703125 13.921875 20.71875 10.15625 
Q 24.75 6.390625 31.78125 6.390625 
Q 38.8125 6.390625 42.859375 10.171875 
Q 46.921875 13.96875 46.921875 20.515625 
Q 46.921875 27.09375 42.890625 30.859375 
Q 38.875 34.625 31.78125 34.625 
z
M 21.921875 38.8125 
Q 15.578125 40.375 12.03125 44.71875 
Q 8.5 49.078125 8.5 55.328125 
Q 8.5 64.0625 14.71875 69.140625 
Q 20.953125 74.21875 31.78125 74.21875 
Q 42.671875 74.21875 48.875 69.140625 
Q 55.078125 64.0625 55.078125 55.328125 
Q 55.078125 49.078125 51.53125 44.71875 
Q 48 40.375 41.703125 38.8125 
Q 48.828125 37.15625 52.796875 32.3125 
Q 56.78125 27.484375 56.78125 20.515625 
Q 56.78125 9.90625 50.3125 4.234375 
Q 43.84375 -1.421875 31.78125 -1.421875 
Q 19.734375 -1.421875 13.25 4.234375 
Q 6.78125 9.90625 6.78125 20.515625 
Q 6.78125 27.484375 10.78125 32.3125 
Q 14.796875 37.15625 21.921875 38.8125 
z
M 18.3125 54.390625 
Q 18.3125 48.734375 21.84375 45.5625 
Q 25.390625 42.390625 31.78125 42.390625 
Q 38.140625 42.390625 41.71875 45.5625 
Q 45.3125 48.734375 45.3125 54.390625 
Q 45.3125 60.0625 41.71875 63.234375 
Q 38.140625 66.40625 31.78125 66.40625 
Q 25.390625 66.40625 21.84375 63.234375 
Q 18.3125 60.0625 18.3125 54.390625 
z
" id="DejaVuSans-56"/>
      </defs>
      <g transform="translate(338.015682 322.182437)scale(0.1 -0.1)">
       <use xlink:href="#DejaVuSans-56"/>
       <use x="63.623047" xlink:href="#DejaVuSans-48"/>
      </g>
     </g>
    </g>
    <g id="xtick_6">
     <g id="line2d_6">
      <g>
       <use style="stroke:#000000;stroke-width:0.8;" x="412.014545" xlink:href="#m2c9cd58547" y="307.584"/>
      </g>
     </g>
     <g id="text_6">
      <!-- 100 -->
      <defs>
       <path d="M 12.40625 8.296875 
L 28.515625 8.296875 
L 28.515625 63.921875 
L 10.984375 60.40625 
L 10.984375 69.390625 
L 28.421875 72.90625 
L 38.28125 72.90625 
L 38.28125 8.296875 
L 54.390625 8.296875 
L 54.390625 0 
L 12.40625 0 
z
" id="DejaVuSans-49"/>
      </defs>
      <g transform="translate(402.470795 322.182437)scale(0.1 -0.1)">
       <use xlink:href="#DejaVuSans-49"/>
       <use x="63.623047" xlink:href="#DejaVuSans-48"/>
       <use x="127.246094" xlink:href="#DejaVuSans-48"/>
      </g>
     </g>
    </g>
    <g id="text_7">
     <!-- Generations -->
     <defs>
      <path d="M 59.515625 10.40625 
L 59.515625 29.984375 
L 43.40625 29.984375 
L 43.40625 38.09375 
L 69.28125 38.09375 
L 69.28125 6.78125 
Q 63.578125 2.734375 56.6875 0.65625 
Q 49.8125 -1.421875 42 -1.421875 
Q 24.90625 -1.421875 15.25 8.5625 
Q 5.609375 18.5625 5.609375 36.375 
Q 5.609375 54.25 15.25 64.234375 
Q 24.90625 74.21875 42 74.21875 
Q 49.125 74.21875 55.546875 72.453125 
Q 61.96875 70.703125 67.390625 67.28125 
L 67.390625 56.78125 
Q 61.921875 61.421875 55.765625 63.765625 
Q 49.609375 66.109375 42.828125 66.109375 
Q 29.4375 66.109375 22.71875 58.640625 
Q 16.015625 51.171875 16.015625 36.375 
Q 16.015625 21.625 22.71875 14.15625 
Q 29.4375 6.6875 42.828125 6.6875 
Q 48.046875 6.6875 52.140625 7.59375 
Q 56.25 8.5 59.515625 10.40625 
z
" id="DejaVuSans-71"/>
      <path d="M 56.203125 29.59375 
L 56.203125 25.203125 
L 14.890625 25.203125 
Q 15.484375 15.921875 20.484375 11.0625 
Q 25.484375 6.203125 34.421875 6.203125 
Q 39.59375 6.203125 44.453125 7.46875 
Q 49.3125 8.734375 54.109375 11.28125 
L 54.109375 2.78125 
Q 49.265625 0.734375 44.1875 -0.34375 
Q 39.109375 -1.421875 33.890625 -1.421875 
Q 20.796875 -1.421875 13.15625 6.1875 
Q 5.515625 13.8125 5.515625 26.8125 
Q 5.515625 40.234375 12.765625 48.109375 
Q 20.015625 56 32.328125 56 
Q 43.359375 56 49.78125 48.890625 
Q 56.203125 41.796875 56.203125 29.59375 
z
M 47.21875 32.234375 
Q 47.125 39.59375 43.09375 43.984375 
Q 39.0625 48.390625 32.421875 48.390625 
Q 24.90625 48.390625 20.390625 44.140625 
Q 15.875 39.890625 15.1875 32.171875 
z
" id="DejaVuSans-101"/>
      <path d="M 54.890625 33.015625 
L 54.890625 0 
L 45.90625 0 
L 45.90625 32.71875 
Q 45.90625 40.484375 42.875 44.328125 
Q 39.84375 48.1875 33.796875 48.1875 
Q 26.515625 48.1875 22.3125 43.546875 
Q 18.109375 38.921875 18.109375 30.90625 
L 18.109375 0 
L 9.078125 0 
L 9.078125 54.6875 
L 18.109375 54.6875 
L 18.109375 46.1875 
Q 21.34375 51.125 25.703125 53.5625 
Q 30.078125 56 35.796875 56 
Q 45.21875 56 50.046875 50.171875 
Q 54.890625 44.34375 54.890625 33.015625 
z
" id="DejaVuSans-110"/>
      <path d="M 41.109375 46.296875 
Q 39.59375 47.171875 37.8125 47.578125 
Q 36.03125 48 33.890625 48 
Q 26.265625 48 22.1875 43.046875 
Q 18.109375 38.09375 18.109375 28.8125 
L 18.109375 0 
L 9.078125 0 
L 9.078125 54.6875 
L 18.109375 54.6875 
L 18.109375 46.1875 
Q 20.953125 51.171875 25.484375 53.578125 
Q 30.03125 56 36.53125 56 
Q 37.453125 56 38.578125 55.875 
Q 39.703125 55.765625 41.0625 55.515625 
z
" id="DejaVuSans-114"/>
      <path d="M 34.28125 27.484375 
Q 23.390625 27.484375 19.1875 25 
Q 14.984375 22.515625 14.984375 16.5 
Q 14.984375 11.71875 18.140625 8.90625 
Q 21.296875 6.109375 26.703125 6.109375 
Q 34.1875 6.109375 38.703125 11.40625 
Q 43.21875 16.703125 43.21875 25.484375 
L 43.21875 27.484375 
z
M 52.203125 31.203125 
L 52.203125 0 
L 43.21875 0 
L 43.21875 8.296875 
Q 40.140625 3.328125 35.546875 0.953125 
Q 30.953125 -1.421875 24.3125 -1.421875 
Q 15.921875 -1.421875 10.953125 3.296875 
Q 6 8.015625 6 15.921875 
Q 6 25.140625 12.171875 29.828125 
Q 18.359375 34.515625 30.609375 34.515625 
L 43.21875 34.515625 
L 43.21875 35.40625 
Q 43.21875 41.609375 39.140625 45 
Q 35.0625 48.390625 27.6875 48.390625 
Q 23 48.390625 18.546875 47.265625 
Q 14.109375 46.140625 10.015625 43.890625 
L 10.015625 52.203125 
Q 14.9375 54.109375 19.578125 55.046875 
Q 24.21875 56 28.609375 56 
Q 40.484375 56 46.34375 49.84375 
Q 52.203125 43.703125 52.203125 31.203125 
z
" id="DejaVuSans-97"/>
      <path d="M 18.3125 70.21875 
L 18.3125 54.6875 
L 36.8125 54.6875 
L 36.8125 47.703125 
L 18.3125 47.703125 
L 18.3125 18.015625 
Q 18.3125 11.328125 20.140625 9.421875 
Q 21.96875 7.515625 27.59375 7.515625 
L 36.8125 7.515625 
L 36.8125 0 
L 27.59375 0 
Q 17.1875 0 13.234375 3.875 
Q 9.28125 7.765625 9.28125 18.015625 
L 9.28125 47.703125 
L 2.6875 47.703125 
L 2.6875 54.6875 
L 9.28125 54.6875 
L 9.28125 70.21875 
z
" id="DejaVuSans-116"/>
      <path d="M 9.421875 54.6875 
L 18.40625 54.6875 
L 18.40625 0 
L 9.421875 0 
z
M 9.421875 75.984375 
L 18.40625 75.984375 
L 18.40625 64.59375 
L 9.421875 64.59375 
z
" id="DejaVuSans-105"/>
      <path d="M 30.609375 48.390625 
Q 23.390625 48.390625 19.1875 42.75 
Q 14.984375 37.109375 14.984375 27.296875 
Q 14.984375 17.484375 19.15625 11.84375 
Q 23.34375 6.203125 30.609375 6.203125 
Q 37.796875 6.203125 41.984375 11.859375 
Q 46.1875 17.53125 46.1875 27.296875 
Q 46.1875 37.015625 41.984375 42.703125 
Q 37.796875 48.390625 30.609375 48.390625 
z
M 30.609375 56 
Q 42.328125 56 49.015625 48.375 
Q 55.71875 40.765625 55.71875 27.296875 
Q 55.71875 13.875 49.015625 6.21875 
Q 42.328125 -1.421875 30.609375 -1.421875 
Q 18.84375 -1.421875 12.171875 6.21875 
Q 5.515625 13.875 5.515625 27.296875 
Q 5.515625 40.765625 12.171875 48.375 
Q 18.84375 56 30.609375 56 
z
" id="DejaVuSans-111"/>
      <path d="M 44.28125 53.078125 
L 44.28125 44.578125 
Q 40.484375 46.53125 36.375 47.5 
Q 32.28125 48.484375 27.875 48.484375 
Q 21.1875 48.484375 17.84375 46.4375 
Q 14.5 44.390625 14.5 40.28125 
Q 14.5 37.15625 16.890625 35.375 
Q 19.28125 33.59375 26.515625 31.984375 
L 29.59375 31.296875 
Q 39.15625 29.25 43.1875 25.515625 
Q 47.21875 21.78125 47.21875 15.09375 
Q 47.21875 7.46875 41.1875 3.015625 
Q 35.15625 -1.421875 24.609375 -1.421875 
Q 20.21875 -1.421875 15.453125 -0.5625 
Q 10.6875 0.296875 5.421875 2 
L 5.421875 11.28125 
Q 10.40625 8.6875 15.234375 7.390625 
Q 20.0625 6.109375 24.8125 6.109375 
Q 31.15625 6.109375 34.5625 8.28125 
Q 37.984375 10.453125 37.984375 14.40625 
Q 37.984375 18.0625 35.515625 20.015625 
Q 33.0625 21.96875 24.703125 23.78125 
L 21.578125 24.515625 
Q 13.234375 26.265625 9.515625 29.90625 
Q 5.8125 33.546875 5.8125 39.890625 
Q 5.8125 47.609375 11.28125 51.796875 
Q 16.75 56 26.8125 56 
Q 31.78125 56 36.171875 55.265625 
Q 40.578125 54.546875 44.28125 53.078125 
z
" id="DejaVuSans-115"/>
     </defs>
     <g transform="translate(205.662344 335.860562)scale(0.1 -0.1)">
      <use xlink:href="#DejaVuSans-71"/>
      <use x="77.490234" xlink:href="#DejaVuSans-101"/>
      <use x="139.013672" xlink:href="#DejaVuSans-110"/>
      <use x="202.392578" xlink:href="#DejaVuSans-101"/>
      <use x="263.916016" xlink:href="#DejaVuSans-114"/>
      <use x="305.029297" xlink:href="#DejaVuSans-97"/>
      <use x="366.308594" xlink:href="#DejaVuSans-116"/>
      <use x="405.517578" xlink:href="#DejaVuSans-105"/>
      <use x="433.300781" xlink:href="#DejaVuSans-111"/>
      <use x="494.482422" xlink:href="#DejaVuSans-110"/>
      <use x="557.861328" xlink:href="#DejaVuSans-115"/>
     </g>
    </g>
   </g>
   <g id="matplotlib.axis_2">
    <g id="ytick_1">
     <g id="line2d_7">
      <defs>
       <path d="M 0 0 
L -3.5 0 
" id="m200697e06f" style="stroke:#000000;stroke-width:0.8;"/>
      </defs>
      <g>
       <use style="stroke:#000000;stroke-width:0.8;" x="57.6" xlink:href="#m200697e06f" y="307.584"/>
      </g>
     </g>
     <g id="text_8">
      <!-- 0 -->
      <g transform="translate(44.2375 311.383219)scale(0.1 -0.1)">
       <use xlink:href="#DejaVuSans-48"/>
      </g>
     </g>
    </g>
    <g id="ytick_2">
     <g id="line2d_8">
      <g>
       <use style="stroke:#000000;stroke-width:0.8;" x="57.6" xlink:href="#m200697e06f" y="257.298286"/>
      </g>
     </g>
     <g id="text_9">
      <!-- 50 -->
      <defs>
       <path d="M 10.796875 72.90625 
L 49.515625 72.90625 
L 49.515625 64.59375 
L 19.828125 64.59375 
L 19.828125 46.734375 
Q 21.96875 47.46875 24.109375 47.828125 
Q 26.265625 48.1875 28.421875 48.1875 
Q 40.625 48.1875 47.75 41.5 
Q 54.890625 34.8125 54.890625 23.390625 
Q 54.890625 11.625 47.5625 5.09375 
Q 40.234375 -1.421875 26.90625 -1.421875 
Q 22.3125 -1.421875 17.546875 -0.640625 
Q 12.796875 0.140625 7.71875 1.703125 
L 7.71875 11.625 
Q 12.109375 9.234375 16.796875 8.0625 
Q 21.484375 6.890625 26.703125 6.890625 
Q 35.15625 6.890625 40.078125 11.328125 
Q 45.015625 15.765625 45.015625 23.390625 
Q 45.015625 31 40.078125 35.4375 
Q 35.15625 39.890625 26.703125 39.890625 
Q 22.75 39.890625 18.8125 39.015625 
Q 14.890625 38.140625 10.796875 36.28125 
z
" id="DejaVuSans-53"/>
      </defs>
      <g transform="translate(37.875 261.097504)scale(0.1 -0.1)">
       <use xlink:href="#DejaVuSans-53"/>
       <use x="63.623047" xlink:href="#DejaVuSans-48"/>
      </g>
     </g>
    </g>
    <g id="ytick_3">
     <g id="line2d_9">
      <g>
       <use style="stroke:#000000;stroke-width:0.8;" x="57.6" xlink:href="#m200697e06f" y="207.012571"/>
      </g>
     </g>
     <g id="text_10">
      <!-- 100 -->
      <g transform="translate(31.5125 210.81179)scale(0.1 -0.1)">
       <use xlink:href="#DejaVuSans-49"/>
       <use x="63.623047" xlink:href="#DejaVuSans-48"/>
       <use x="127.246094" xlink:href="#DejaVuSans-48"/>
      </g>
     </g>
    </g>
    <g id="ytick_4">
     <g id="line2d_10">
      <g>
       <use style="stroke:#000000;stroke-width:0.8;" x="57.6" xlink:href="#m200697e06f" y="156.726857"/>
      </g>
     </g>
     <g id="text_11">
      <!-- 150 -->
      <g transform="translate(31.5125 160.526076)scale(0.1 -0.1)">
       <use xlink:href="#DejaVuSans-49"/>
       <use x="63.623047" xlink:href="#DejaVuSans-53"/>
       <use x="127.246094" xlink:href="#DejaVuSans-48"/>
      </g>
     </g>
    </g>
    <g id="ytick_5">
     <g id="line2d_11">
      <g>
       <use style="stroke:#000000;stroke-width:0.8;" x="57.6" xlink:href="#m200697e06f" y="106.441143"/>
      </g>
     </g>
     <g id="text_12">
      <!-- 200 -->
      <g transform="translate(31.5125 110.240362)scale(0.1 -0.1)">
       <use xlink:href="#DejaVuSans-50"/>
       <use x="63.623047" xlink:href="#DejaVuSans-48"/>
       <use x="127.246094" xlink:href="#DejaVuSans-48"/>
      </g>
     </g>
    </g>
    <g id="ytick_6">
     <g id="line2d_12">
      <g>
       <use style="stroke:#000000;stroke-width:0.8;" x="57.6" xlink:href="#m200697e06f" y="56.155429"/>
      </g>
     </g>
     <g id="text_13">
      <!-- 250 -->
      <g transform="translate(31.5125 59.954647)scale(0.1 -0.1)">
       <use xlink:href="#DejaVuSans-50"/>
       <use x="63.623047" xlink:href="#DejaVuSans-53"/>
       <use x="127.246094" xlink:href="#DejaVuSans-48"/>
      </g>
     </g>
    </g>
    <g id="text_14">
     <!-- Size per Species -->
     <defs>
      <path d="M 53.515625 70.515625 
L 53.515625 60.890625 
Q 47.90625 63.578125 42.921875 64.890625 
Q 37.9375 66.21875 33.296875 66.21875 
Q 25.25 66.21875 20.875 63.09375 
Q 16.5 59.96875 16.5 54.203125 
Q 16.5 49.359375 19.40625 46.890625 
Q 22.3125 44.4375 30.421875 42.921875 
L 36.375 41.703125 
Q 47.40625 39.59375 52.65625 34.296875 
Q 57.90625 29 57.90625 20.125 
Q 57.90625 9.515625 50.796875 4.046875 
Q 43.703125 -1.421875 29.984375 -1.421875 
Q 24.8125 -1.421875 18.96875 -0.25 
Q 13.140625 0.921875 6.890625 3.21875 
L 6.890625 13.375 
Q 12.890625 10.015625 18.65625 8.296875 
Q 24.421875 6.59375 29.984375 6.59375 
Q 38.421875 6.59375 43.015625 9.90625 
Q 47.609375 13.234375 47.609375 19.390625 
Q 47.609375 24.75 44.3125 27.78125 
Q 41.015625 30.8125 33.5 32.328125 
L 27.484375 33.5 
Q 16.453125 35.6875 11.515625 40.375 
Q 6.59375 45.0625 6.59375 53.421875 
Q 6.59375 63.09375 13.40625 68.65625 
Q 20.21875 74.21875 32.171875 74.21875 
Q 37.3125 74.21875 42.625 73.28125 
Q 47.953125 72.359375 53.515625 70.515625 
z
" id="DejaVuSans-83"/>
      <path d="M 5.515625 54.6875 
L 48.1875 54.6875 
L 48.1875 46.484375 
L 14.40625 7.171875 
L 48.1875 7.171875 
L 48.1875 0 
L 4.296875 0 
L 4.296875 8.203125 
L 38.09375 47.515625 
L 5.515625 47.515625 
z
" id="DejaVuSans-122"/>
      <path id="DejaVuSans-32"/>
      <path d="M 18.109375 8.203125 
L 18.109375 -20.796875 
L 9.078125 -20.796875 
L 9.078125 54.6875 
L 18.109375 54.6875 
L 18.109375 46.390625 
Q 20.953125 51.265625 25.265625 53.625 
Q 29.59375 56 35.59375 56 
Q 45.5625 56 51.78125 48.09375 
Q 58.015625 40.1875 58.015625 27.296875 
Q 58.015625 14.40625 51.78125 6.484375 
Q 45.5625 -1.421875 35.59375 -1.421875 
Q 29.59375 -1.421875 25.265625 0.953125 
Q 20.953125 3.328125 18.109375 8.203125 
z
M 48.6875 27.296875 
Q 48.6875 37.203125 44.609375 42.84375 
Q 40.53125 48.484375 33.40625 48.484375 
Q 26.265625 48.484375 22.1875 42.84375 
Q 18.109375 37.203125 18.109375 27.296875 
Q 18.109375 17.390625 22.1875 11.75 
Q 26.265625 6.109375 33.40625 6.109375 
Q 40.53125 6.109375 44.609375 11.75 
Q 48.6875 17.390625 48.6875 27.296875 
z
" id="DejaVuSans-112"/>
      <path d="M 48.78125 52.59375 
L 48.78125 44.1875 
Q 44.96875 46.296875 41.140625 47.34375 
Q 37.3125 48.390625 33.40625 48.390625 
Q 24.65625 48.390625 19.8125 42.84375 
Q 14.984375 37.3125 14.984375 27.296875 
Q 14.984375 17.28125 19.8125 11.734375 
Q 24.65625 6.203125 33.40625 6.203125 
Q 37.3125 6.203125 41.140625 7.25 
Q 44.96875 8.296875 48.78125 10.40625 
L 48.78125 2.09375 
Q 45.015625 0.34375 40.984375 -0.53125 
Q 36.96875 -1.421875 32.421875 -1.421875 
Q 20.0625 -1.421875 12.78125 6.34375 
Q 5.515625 14.109375 5.515625 27.296875 
Q 5.515625 40.671875 12.859375 48.328125 
Q 20.21875 56 33.015625 56 
Q 37.15625 56 41.109375 55.140625 
Q 45.0625 54.296875 48.78125 52.59375 
z
" id="DejaVuSans-99"/>
     </defs>
     <g transform="translate(25.432812 215.520969)rotate(-90)scale(0.1 -0.1)">
      <use xlink:href="#DejaVuSans-83"/>
      <use x="63.476562" xlink:href="#DejaVuSans-105"/>
      <use x="91.259766" xlink:href="#DejaVuSans-122"/>
      <use x="143.75" xlink:href="#DejaVuSans-101"/>
      <use x="205.273438" xlink:href="#DejaVuSans-32"/>
      <use x="237.060547" xlink:href="#DejaVuSans-112"/>
      <use x="300.537109" xlink:href="#DejaVuSans-101"/>
      <use x="362.060547" xlink:href="#DejaVuSans-114"/>
      <use x="403.173828" xlink:href="#DejaVuSans-32"/>
      <use x="434.960938" xlink:href="#DejaVuSans-83"/>
      <use x="498.4375" xlink:href="#DejaVuSans-112"/>
      <use x="561.914062" xlink:href="#DejaVuSans-101"/>
      <use x="623.4375" xlink:href="#DejaVuSans-99"/>
      <use x="678.417969" xlink:href="#DejaVuSans-105"/>
      <use x="706.201172" xlink:href="#DejaVuSans-101"/>
      <use x="767.724609" xlink:href="#DejaVuSans-115"/>
     </g>
    </g>
   </g>
   <g id="patch_3">
    <path d="M 57.6 307.584 
L 57.6 41.472 
" style="fill:none;stroke:#000000;stroke-linecap:square;stroke-linejoin:miter;stroke-width:0.8;"/>
   </g>
   <g id="patch_4">
    <path d="M 414.72 307.584 
L 414.72 41.472 
" style="fill:none;stroke:#000000;stroke-linecap:square;stroke-linejoin:miter;stroke-width:0.8;"/>
   </g>
   <g id="patch_5">
    <path d="M 57.6 307.584 
L 414.72 307.584 
" style="fill:none;stroke:#000000;stroke-linecap:square;stroke-linejoin:miter;stroke-width:0.8;"/>
   </g>
   <g id="patch_6">
    <path d="M 57.6 41.472 
L 414.72 41.472 
" style="fill:none;stroke:#000000;stroke-linecap:square;stroke-linejoin:miter;stroke-width:0.8;"/>
   </g>
   <g id="text_15">
    <!-- Speciation -->
    <g transform="translate(204.714375 35.472)scale(0.12 -0.12)">
     <use xlink:href="#DejaVuSans-83"/>
     <use x="63.476562" xlink:href="#DejaVuSans-112"/>
     <use x="126.953125" xlink:href="#DejaVuSans-101"/>
     <use x="188.476562" xlink:href="#DejaVuSans-99"/>
     <use x="243.457031" xlink:href="#DejaVuSans-105"/>
     <use x="271.240234" xlink:href="#DejaVuSans-97"/>
     <use x="332.519531" xlink:href="#DejaVuSans-116"/>
     <use x="371.728516" xlink:href="#DejaVuSans-105"/>
     <use x="399.511719" xlink:href="#DejaVuSans-111"/>
     <use x="460.693359" xlink:href="#DejaVuSans-110"/>
    </g>
   </g>
  </g>
 </g>
 <defs>
  <clipPath id="p361e663fd6">
   <rect height="266.112" width="357.12" x="57.6" y="41.472"/>
  </clipPath>
 </defs>
</svg>
