<?xml version="1.0" encoding="UTF-8" standalone="no"?>
<!DOCTYPE svg PUBLIC "-//W3C//DTD SVG 1.1//EN"
 "http://www.w3.org/Graphics/SVG/1.1/DTD/svg11.dtd">
<!-- Generated by graphviz version 2.40.1 (20161225.0304)
 -->
<!-- Title: %3 Pages: 1 -->
<svg width="139pt" height="369pt"
 viewBox="0.00 0.00 138.53 368.63" xmlns="http://www.w3.org/2000/svg" xmlns:xlink="http://www.w3.org/1999/xlink">
<g id="graph0" class="graph" transform="scale(1 1) rotate(0) translate(4 364.6346)">
<title>%3</title>
<polygon fill="#ffffff" stroke="transparent" points="-4,4 -4,-364.6346 134.5269,-364.6346 134.5269,4 -4,4"/>
<!-- 0 -->
<g id="node1" class="node">
<title>0</title>
<polygon fill="#d3d3d3" stroke="#000000" points="52.7635,-360.6346 29.7635,-360.6346 29.7635,-342.6346 52.7635,-342.6346 52.7635,-360.6346"/>
<text text-anchor="middle" x="41.2635" y="-349.4346" font-family="Times,serif" font-size="9.00" fill="#000000">0</text>
</g>
<!-- 5 -->
<g id="node6" class="node">
<title>5</title>
<ellipse fill="none" stroke="#000000" cx="16.2635" cy="-290.3711" rx="16.0303" ry="16.0303"/>
<text text-anchor="middle" x="16.2635" y="-288.1711" font-family="Times,serif" font-size="9.00" fill="#000000">5</text>
</g>
<!-- 0&#45;&gt;5 -->
<g id="edge4" class="edge">
<title>0&#45;&gt;5</title>
<path fill="none" stroke="#00ff00" stroke-width=".2014" d="M37.5746,-342.5949C34.6001,-335.3057 30.2711,-324.6975 26.2907,-314.9432"/>
<polygon fill="#00ff00" stroke="#00ff00" stroke-width=".2014" points="29.5083,-313.5644 22.4894,-305.6281 23.0272,-316.2093 29.5083,-313.5644"/>
</g>
<!-- 6 -->
<g id="node7" class="node">
<title>6</title>
<ellipse fill="none" stroke="#000000" cx="67.2635" cy="-290.3711" rx="16.0303" ry="16.0303"/>
<text text-anchor="middle" x="67.2635" y="-288.1711" font-family="Times,serif" font-size="9.00" fill="#000000">6</text>
</g>
<!-- 0&#45;&gt;6 -->
<g id="edge7" class="edge">
<title>0&#45;&gt;6</title>
<path fill="none" stroke="#00ff00" stroke-width=".119" d="M45.0998,-342.5949C48.1934,-335.3057 52.6955,-324.6975 56.8351,-314.9432"/>
<polygon fill="#00ff00" stroke="#00ff00" stroke-width=".119" points="60.1036,-316.2008 60.7885,-305.6281 53.6598,-313.466 60.1036,-316.2008"/>
</g>
<!-- 1 -->
<g id="node2" class="node">
<title>1</title>
<polygon fill="#d3d3d3" stroke="#000000" points="93.7635,-360.6346 70.7635,-360.6346 70.7635,-342.6346 93.7635,-342.6346 93.7635,-360.6346"/>
<text text-anchor="middle" x="82.2635" y="-349.4346" font-family="Times,serif" font-size="9.00" fill="#000000">1</text>
</g>
<!-- 2 -->
<g id="node3" class="node">
<title>2</title>
<ellipse fill="#add8e6" stroke="#add8e6" cx="51.2635" cy="-16.2635" rx="16.0303" ry="16.0303"/>
<text text-anchor="middle" x="51.2635" y="-14.0635" font-family="Times,serif" font-size="9.00" fill="#000000">2</text>
</g>
<!-- 2&#45;&gt;2 -->
<g id="edge1" class="edge">
<title>2&#45;&gt;2</title>
<path fill="none" stroke="#ff0000" stroke-width=".1505" d="M63.5587,-26.9092C74.234,-31.7652 85.5269,-28.2166 85.5269,-16.2635 85.5269,-8.0457 80.1893,-3.8004 73.3843,-3.5275"/>
<polygon fill="#ff0000" stroke="#ff0000" stroke-width=".1505" points="72.6116,-.1135 63.5587,-5.6177 74.0681,-6.9603 72.6116,-.1135"/>
</g>
<!-- 3 -->
<g id="node4" class="node">
<title>3</title>
<ellipse fill="none" stroke="#000000" cx="38.2635" cy="-221.8442" rx="16.0303" ry="16.0303"/>
<text text-anchor="middle" x="38.2635" y="-219.6442" font-family="Times,serif" font-size="9.00" fill="#000000">3</text>
</g>
<!-- 2&#45;&gt;3 -->
<g id="edge8" class="edge">
<title>2&#45;&gt;3</title>
<path fill="none" stroke="#ff0000" stroke-width=".5404" stroke-dasharray="1,5" d="M50.2347,-32.5326C47.9971,-67.9168 42.6705,-152.1517 39.9401,-195.33"/>
<polygon fill="#ff0000" stroke="#ff0000" stroke-width=".5404" points="36.4435,-195.1672 39.3053,-205.3682 43.4295,-195.609 36.4435,-195.1672"/>
</g>
<!-- 2&#45;&gt;5 -->
<g id="edge6" class="edge">
<title>2&#45;&gt;5</title>
<path fill="none" stroke="#00ff00" stroke-width=".5002" stroke-dasharray="1,5" d="M46.9854,-32.0592C38.4879,-64.3469 19.744,-140.3642 13.2635,-205.5807 11.834,-219.9663 12.8491,-223.6572 13.2635,-238.1076 13.5026,-246.4457 13.9558,-255.5228 14.439,-263.7373"/>
<polygon fill="#00ff00" stroke="#00ff00" stroke-width=".5002" points="10.9574,-264.1428 15.0758,-273.9044 17.9437,-263.7052 10.9574,-264.1428"/>
</g>
<!-- 4 -->
<g id="node5" class="node">
<title>4</title>
<ellipse fill="none" stroke="#000000" cx="76.2635" cy="-153.3173" rx="16.0303" ry="16.0303"/>
<text text-anchor="middle" x="76.2635" y="-151.1173" font-family="Times,serif" font-size="9.00" fill="#000000">4</text>
</g>
<!-- 3&#45;&gt;4 -->
<g id="edge2" class="edge">
<title>3&#45;&gt;4</title>
<path fill="none" stroke="#00ff00" stroke-width=".7669" d="M46.3223,-207.3114C51.2596,-198.4078 57.6922,-186.8076 63.329,-176.6425"/>
<polygon fill="#00ff00" stroke="#00ff00" stroke-width=".7669" points="66.4275,-178.2719 68.2162,-167.8291 60.3058,-174.8772 66.4275,-178.2719"/>
</g>
<!-- 4&#45;&gt;2 -->
<g id="edge3" class="edge">
<title>4&#45;&gt;2</title>
<path fill="none" stroke="#00ff00" stroke-width=".2537" stroke-dasharray="1,5" d="M73.2975,-137.0572C69.031,-113.668 61.1164,-70.2787 56.0251,-42.3677"/>
<polygon fill="#00ff00" stroke="#00ff00" stroke-width=".2537" points="59.4634,-41.7119 54.2256,-32.5024 52.577,-42.9681 59.4634,-41.7119"/>
</g>
<!-- 7 -->
<g id="node8" class="node">
<title>7</title>
<ellipse fill="none" stroke="#000000" cx="114.2635" cy="-84.7904" rx="16.0303" ry="16.0303"/>
<text text-anchor="middle" x="114.2635" y="-82.5904" font-family="Times,serif" font-size="9.00" fill="#000000">7</text>
</g>
<!-- 4&#45;&gt;7 -->
<g id="edge9" class="edge">
<title>4&#45;&gt;7</title>
<path fill="none" stroke="#00ff00" stroke-width=".2976" d="M84.3223,-138.7845C89.2596,-129.8808 95.6922,-118.2807 101.329,-108.1156"/>
<polygon fill="#00ff00" stroke="#00ff00" stroke-width=".2976" points="104.4275,-109.745 106.2162,-99.3022 98.3058,-106.3503 104.4275,-109.745"/>
</g>
<!-- 5&#45;&gt;3 -->
<g id="edge5" class="edge">
<title>5&#45;&gt;3</title>
<path fill="none" stroke="#00ff00" stroke-width=".2086" d="M21.2556,-274.8213C23.8997,-266.5854 27.2118,-256.2686 30.209,-246.9328"/>
<polygon fill="#00ff00" stroke="#00ff00" stroke-width=".2086" points="33.5667,-247.9237 33.2911,-237.3325 26.9018,-245.7839 33.5667,-247.9237"/>
</g>
<!-- 7&#45;&gt;2 -->
<g id="edge10" class="edge">
<title>7&#45;&gt;2</title>
<path fill="none" stroke="#00ff00" stroke-width=".3998" d="M103.0003,-72.5391C93.6832,-62.4046 80.2699,-47.8146 69.4356,-36.0299"/>
<polygon fill="#00ff00" stroke="#00ff00" stroke-width=".3998" points="71.7737,-33.4016 62.4291,-28.4086 66.6205,-38.1392 71.7737,-33.4016"/>
</g>
</g>
</svg>
