<?xml version="1.0" encoding="UTF-8" standalone="no"?>
<!DOCTYPE svg PUBLIC "-//W3C//DTD SVG 1.1//EN"
 "http://www.w3.org/Graphics/SVG/1.1/DTD/svg11.dtd">
<!-- Generated by graphviz version 2.40.1 (20161225.0304)
 -->
<!-- Title: %3 Pages: 1 -->
<svg width="77pt" height="369pt"
 viewBox="0.00 0.00 76.76 368.63" xmlns="http://www.w3.org/2000/svg" xmlns:xlink="http://www.w3.org/1999/xlink">
<g id="graph0" class="graph" transform="scale(1 1) rotate(0) translate(4 364.6346)">
<title>%3</title>
<polygon fill="#ffffff" stroke="transparent" points="-4,4 -4,-364.6346 72.7635,-364.6346 72.7635,4 -4,4"/>
<!-- 0 -->
<g id="node1" class="node">
<title>0</title>
<polygon fill="#d3d3d3" stroke="#000000" points="27.7635,-360.6346 4.7635,-360.6346 4.7635,-342.6346 27.7635,-342.6346 27.7635,-360.6346"/>
<text text-anchor="middle" x="16.2635" y="-349.4346" font-family="Times,serif" font-size="9.00" fill="#000000">0</text>
</g>
<!-- 5 -->
<g id="node6" class="node">
<title>5</title>
<ellipse fill="none" stroke="#000000" cx="16.2635" cy="-290.3711" rx="16.0303" ry="16.0303"/>
<text text-anchor="middle" x="16.2635" y="-288.1711" font-family="Times,serif" font-size="9.00" fill="#000000">5</text>
</g>
<!-- 0&#45;&gt;5 -->
<g id="edge3" class="edge">
<title>0&#45;&gt;5</title>
<path fill="none" stroke="#00ff00" stroke-width=".2014" d="M16.2635,-342.5949C16.2635,-335.8965 16.2635,-326.3953 16.2635,-317.3296"/>
<polygon fill="#00ff00" stroke="#00ff00" stroke-width=".2014" points="19.7636,-317.0812 16.2635,-307.0813 12.7636,-317.0813 19.7636,-317.0812"/>
</g>
<!-- 1 -->
<g id="node2" class="node">
<title>1</title>
<polygon fill="#d3d3d3" stroke="#000000" points="68.7635,-360.6346 45.7635,-360.6346 45.7635,-342.6346 68.7635,-342.6346 68.7635,-360.6346"/>
<text text-anchor="middle" x="57.2635" y="-349.4346" font-family="Times,serif" font-size="9.00" fill="#000000">1</text>
</g>
<!-- 2 -->
<g id="node3" class="node">
<title>2</title>
<ellipse fill="#add8e6" stroke="#add8e6" cx="16.2635" cy="-16.2635" rx="16.0303" ry="16.0303"/>
<text text-anchor="middle" x="16.2635" y="-14.0635" font-family="Times,serif" font-size="9.00" fill="#000000">2</text>
</g>
<!-- 2&#45;&gt;2 -->
<g id="edge1" class="edge">
<title>2&#45;&gt;2</title>
<path fill="none" stroke="#ff0000" stroke-width=".1505" d="M28.5587,-26.9092C39.234,-31.7652 50.5269,-28.2166 50.5269,-16.2635 50.5269,-8.0457 45.1893,-3.8004 38.3843,-3.5275"/>
<polygon fill="#ff0000" stroke="#ff0000" stroke-width=".1505" points="37.6116,-.1135 28.5587,-5.6177 39.0681,-6.9603 37.6116,-.1135"/>
</g>
<!-- 3 -->
<g id="node4" class="node">
<title>3</title>
<ellipse fill="none" stroke="#000000" cx="16.2635" cy="-221.8442" rx="16.0303" ry="16.0303"/>
<text text-anchor="middle" x="16.2635" y="-219.6442" font-family="Times,serif" font-size="9.00" fill="#000000">3</text>
</g>
<!-- 4 -->
<g id="node5" class="node">
<title>4</title>
<ellipse fill="none" stroke="#000000" cx="16.2635" cy="-153.3173" rx="16.0303" ry="16.0303"/>
<text text-anchor="middle" x="16.2635" y="-151.1173" font-family="Times,serif" font-size="9.00" fill="#000000">4</text>
</g>
<!-- 3&#45;&gt;4 -->
<g id="edge2" class="edge">
<title>3&#45;&gt;4</title>
<path fill="none" stroke="#00ff00" stroke-width=".7669" d="M16.2635,-205.2557C16.2635,-197.6802 16.2635,-188.5172 16.2635,-180.0097"/>
<polygon fill="#00ff00" stroke="#00ff00" stroke-width=".7669" points="19.7636,-179.7529 16.2635,-169.753 12.7636,-179.753 19.7636,-179.7529"/>
</g>
<!-- 7 -->
<g id="node7" class="node">
<title>7</title>
<ellipse fill="none" stroke="#000000" cx="16.2635" cy="-84.7904" rx="16.0303" ry="16.0303"/>
<text text-anchor="middle" x="16.2635" y="-82.5904" font-family="Times,serif" font-size="9.00" fill="#000000">7</text>
</g>
<!-- 4&#45;&gt;7 -->
<g id="edge5" class="edge">
<title>4&#45;&gt;7</title>
<path fill="none" stroke="#00ff00" stroke-width=".2976" d="M16.2635,-136.7288C16.2635,-129.1533 16.2635,-119.9903 16.2635,-111.4828"/>
<polygon fill="#00ff00" stroke="#00ff00" stroke-width=".2976" points="19.7636,-111.226 16.2635,-101.2261 12.7636,-111.2261 19.7636,-111.226"/>
</g>
<!-- 5&#45;&gt;3 -->
<g id="edge4" class="edge">
<title>5&#45;&gt;3</title>
<path fill="none" stroke="#00ff00" stroke-width=".2086" d="M16.2635,-273.7826C16.2635,-266.2071 16.2635,-257.0441 16.2635,-248.5366"/>
<polygon fill="#00ff00" stroke="#00ff00" stroke-width=".2086" points="19.7636,-248.2798 16.2635,-238.2799 12.7636,-248.2799 19.7636,-248.2798"/>
</g>
<!-- 7&#45;&gt;2 -->
<g id="edge6" class="edge">
<title>7&#45;&gt;2</title>
<path fill="none" stroke="#00ff00" stroke-width=".3998" d="M16.2635,-68.2019C16.2635,-60.6263 16.2635,-51.4634 16.2635,-42.9559"/>
<polygon fill="#00ff00" stroke="#00ff00" stroke-width=".3998" points="19.7636,-42.6991 16.2635,-32.6991 12.7636,-42.6992 19.7636,-42.6991"/>
</g>
</g>
</svg>
