<?xml version="1.0" encoding="UTF-8" standalone="no"?>
<!DOCTYPE svg PUBLIC "-//W3C//DTD SVG 1.1//EN"
 "http://www.w3.org/Graphics/SVG/1.1/DTD/svg11.dtd">
<!-- Generated by graphviz version 2.40.1 (20161225.0304)
 -->
<!-- Title: %3 Pages: 1 -->
<svg width="180pt" height="300pt"
 viewBox="0.00 0.00 179.64 300.11" xmlns="http://www.w3.org/2000/svg" xmlns:xlink="http://www.w3.org/1999/xlink">
<g id="graph0" class="graph" transform="scale(1 1) rotate(0) translate(4 296.1076)">
<title>%3</title>
<polygon fill="#ffffff" stroke="transparent" points="-4,4 -4,-296.1076 175.6362,-296.1076 175.6362,4 -4,4"/>
<!-- 0 -->
<g id="node1" class="node">
<title>0</title>
<polygon fill="#d3d3d3" stroke="#000000" points="46.1998,-292.1076 23.1998,-292.1076 23.1998,-274.1076 46.1998,-274.1076 46.1998,-292.1076"/>
<text text-anchor="middle" x="34.6998" y="-280.9076" font-family="Times,serif" font-size="9.00" fill="#000000">0</text>
</g>
<!-- 2 -->
<g id="node3" class="node">
<title>2</title>
<ellipse fill="#add8e6" stroke="#add8e6" cx="107.6998" cy="-16.2635" rx="16.0303" ry="16.0303"/>
<text text-anchor="middle" x="107.6998" y="-14.0635" font-family="Times,serif" font-size="9.00" fill="#000000">2</text>
</g>
<!-- 0&#45;&gt;2 -->
<g id="edge12" class="edge">
<title>0&#45;&gt;2</title>
<path fill="none" stroke="#00ff00" stroke-width=".5004" d="M27.8368,-274.0508C21.7154,-265.3618 13.197,-251.6039 9.6998,-238.1076 -1.5662,-194.6308 -4.424,-179.6881 9.6998,-137.0538 24.1331,-93.4854 62.5976,-54.5265 86.8224,-33.2604"/>
<polygon fill="#00ff00" stroke="#00ff00" stroke-width=".5004" points="89.407,-35.6556 94.7344,-26.4976 84.8587,-30.3345 89.407,-35.6556"/>
</g>
<!-- 3 -->
<g id="node4" class="node">
<title>3</title>
<ellipse fill="none" stroke="#000000" cx="85.6998" cy="-84.7904" rx="16.0303" ry="16.0303"/>
<text text-anchor="middle" x="85.6998" y="-82.5904" font-family="Times,serif" font-size="9.00" fill="#000000">3</text>
</g>
<!-- 0&#45;&gt;3 -->
<g id="edge4" class="edge">
<title>0&#45;&gt;3</title>
<path fill="none" stroke="#00ff00" stroke-width=".1471" d="M30.9552,-273.9983C21.7658,-250.1572 .4169,-184.4915 22.6998,-137.0538 30.8282,-119.7493 47.8118,-106.199 62.0987,-97.2361"/>
<polygon fill="#00ff00" stroke="#00ff00" stroke-width=".1471" points="64.1315,-100.101 70.9777,-92.0152 60.5834,-94.0669 64.1315,-100.101"/>
</g>
<!-- 4 -->
<g id="node5" class="node">
<title>4</title>
<ellipse fill="none" stroke="#000000" cx="47.6998" cy="-153.3173" rx="16.0303" ry="16.0303"/>
<text text-anchor="middle" x="47.6998" y="-151.1173" font-family="Times,serif" font-size="9.00" fill="#000000">4</text>
</g>
<!-- 0&#45;&gt;4 -->
<g id="edge5" class="edge">
<title>0&#45;&gt;4</title>
<path fill="none" stroke="#00ff00" stroke-width=".7986" d="M35.6347,-273.7734C37.5758,-254.3944 42.1049,-209.1757 45.0285,-179.9876"/>
<polygon fill="#00ff00" stroke="#00ff00" stroke-width=".7986" points="48.5474,-179.9722 46.0616,-169.6731 41.5823,-179.2745 48.5474,-179.9722"/>
</g>
<!-- 5 -->
<g id="node6" class="node">
<title>5</title>
<ellipse fill="none" stroke="#000000" cx="129.6998" cy="-221.8442" rx="16.0303" ry="16.0303"/>
<text text-anchor="middle" x="129.6998" y="-219.6442" font-family="Times,serif" font-size="9.00" fill="#000000">5</text>
</g>
<!-- 0&#45;&gt;5 -->
<g id="edge7" class="edge">
<title>0&#45;&gt;5</title>
<path fill="none" stroke="#00ff00" stroke-width="1.1655" d="M46.3487,-275.5955C61.4901,-265.8312 88.2513,-248.5734 107.3668,-236.2463"/>
<polygon fill="#00ff00" stroke="#00ff00" stroke-width="1.1655" points="109.2898,-239.1709 115.797,-230.8098 105.496,-233.288 109.2898,-239.1709"/>
</g>
<!-- 6 -->
<g id="node7" class="node">
<title>6</title>
<ellipse fill="none" stroke="#000000" cx="78.6998" cy="-221.8442" rx="16.0303" ry="16.0303"/>
<text text-anchor="middle" x="78.6998" y="-219.6442" font-family="Times,serif" font-size="9.00" fill="#000000">6</text>
</g>
<!-- 0&#45;&gt;6 -->
<g id="edge9" class="edge">
<title>0&#45;&gt;6</title>
<path fill="none" stroke="#ff0000" stroke-width=".1827" d="M41.1921,-274.068C46.9443,-266.059 55.5741,-254.0432 63.1064,-243.5557"/>
<polygon fill="#ff0000" stroke="#ff0000" stroke-width=".1827" points="66.0973,-245.3912 69.088,-235.2272 60.4117,-241.3077 66.0973,-245.3912"/>
</g>
<!-- 1 -->
<g id="node2" class="node">
<title>1</title>
<polygon fill="#d3d3d3" stroke="#000000" points="163.1998,-292.1076 140.1998,-292.1076 140.1998,-274.1076 163.1998,-274.1076 163.1998,-292.1076"/>
<text text-anchor="middle" x="151.6998" y="-280.9076" font-family="Times,serif" font-size="9.00" fill="#000000">1</text>
</g>
<!-- 1&#45;&gt;2 -->
<g id="edge1" class="edge">
<title>1&#45;&gt;2</title>
<path fill="none" stroke="#ff0000" stroke-width=".6931" d="M156.6575,-273.773C161.0764,-264.8878 167.2175,-250.9971 169.6998,-238.1076 172.4336,-223.9121 171.9779,-219.8565 169.6998,-205.5807 159.9774,-144.6548 133.6987,-76.7105 118.6589,-41.1139"/>
<polygon fill="#ff0000" stroke="#ff0000" stroke-width=".6931" points="121.7181,-39.3671 114.5603,-31.5558 115.2846,-42.1259 121.7181,-39.3671"/>
</g>
<!-- 1&#45;&gt;3 -->
<g id="edge2" class="edge">
<title>1&#45;&gt;3</title>
<path fill="none" stroke="#00ff00" stroke-width="1.1921" d="M153.5869,-273.8936C156.2521,-259.2228 160.2146,-229.7435 154.6998,-205.5807 145.8842,-166.9562 120.0341,-128.2339 102.6004,-105.399"/>
<polygon fill="#00ff00" stroke="#00ff00" stroke-width="1.1921" points="105.3044,-103.175 96.384,-97.4585 99.7925,-107.4901 105.3044,-103.175"/>
</g>
<!-- 1&#45;&gt;5 -->
<g id="edge10" class="edge">
<title>1&#45;&gt;5</title>
<path fill="none" stroke="#ff0000" stroke-width=".5585" d="M148.4536,-274.068C145.8988,-266.9535 142.2085,-256.6773 138.7762,-247.1192"/>
<polygon fill="#ff0000" stroke="#ff0000" stroke-width=".5585" points="142.0249,-245.8099 135.351,-237.5813 135.4368,-248.1758 142.0249,-245.8099"/>
</g>
<!-- 1&#45;&gt;6 -->
<g id="edge13" class="edge">
<title>1&#45;&gt;6</title>
<path fill="none" stroke="#ff0000" stroke-width=".1517" d="M140.9284,-274.068C129.9585,-264.8618 112.6802,-250.3614 99.1108,-238.9736"/>
<polygon fill="#ff0000" stroke="#ff0000" stroke-width=".1517" points="101.1407,-236.108 91.2308,-232.3605 96.6408,-241.47 101.1407,-236.108"/>
</g>
<!-- 3&#45;&gt;2 -->
<g id="edge3" class="edge">
<title>3&#45;&gt;2</title>
<path fill="none" stroke="#00ff00" stroke-width="1.7485" d="M90.6919,-69.2406C93.336,-61.0046 96.6481,-50.6879 99.6453,-41.3521"/>
<polygon fill="#00ff00" stroke="#00ff00" stroke-width="1.7485" points="103.0031,-42.343 102.7274,-31.7517 96.3381,-40.2032 103.0031,-42.343"/>
</g>
<!-- 4&#45;&gt;3 -->
<g id="edge6" class="edge">
<title>4&#45;&gt;3</title>
<path fill="none" stroke="#ff0000" stroke-width=".7169" d="M55.7586,-138.7845C60.6959,-129.8808 67.1285,-118.2807 72.7653,-108.1156"/>
<polygon fill="#ff0000" stroke="#ff0000" stroke-width=".7169" points="75.8639,-109.745 77.6526,-99.3022 69.7421,-106.3503 75.8639,-109.745"/>
</g>
<!-- 5&#45;&gt;3 -->
<g id="edge8" class="edge">
<title>5&#45;&gt;3</title>
<path fill="none" stroke="#ff0000" stroke-width=".8699" d="M124.6524,-206.1224C117.0933,-182.5767 102.7589,-137.9273 93.7458,-109.8525"/>
<polygon fill="#ff0000" stroke="#ff0000" stroke-width=".8699" points="97.0776,-108.7803 90.6883,-100.3288 90.4126,-110.9201 97.0776,-108.7803"/>
</g>
<!-- 6&#45;&gt;2 -->
<g id="edge14" class="edge">
<title>6&#45;&gt;2</title>
<path fill="none" stroke="#ff0000" stroke-width=".3349" d="M84.153,-206.466C91.8857,-183.7621 105.6576,-139.7761 110.6998,-101.0538 112.5665,-86.7184 111.1142,-82.9774 110.6998,-68.5269 110.4607,-60.1888 110.0074,-51.1117 109.5243,-42.8972"/>
<polygon fill="#ff0000" stroke="#ff0000" stroke-width=".3349" points="113.0058,-42.4917 108.8874,-32.7301 106.0195,-42.9294 113.0058,-42.4917"/>
</g>
<!-- 6&#45;&gt;4 -->
<g id="edge11" class="edge">
<title>6&#45;&gt;4</title>
<path fill="none" stroke="#00ff00" stroke-width="1.0523" d="M71.9732,-206.9749C68.0734,-198.3542 63.0688,-187.2912 58.618,-177.4525"/>
<polygon fill="#00ff00" stroke="#00ff00" stroke-width="1.0523" points="61.7238,-175.8261 54.4132,-168.1576 55.346,-178.7113 61.7238,-175.8261"/>
</g>
</g>
</svg>
